RecursiveTrio-TextMediumv0.0.4.ufo
<glyph name="B" format="2">
  <advance width="600.0"/>
  <unicode hex="0042"/>
  <outline>
    <contour>
      <point x="35.0" y="700.0" type="curve"/>
      <point x="35.0" y="681.0" type="line" smooth="yes"/>
      <point x="35.0" y="645.4"/>
      <point x="39.2" y="610.8"/>
      <point x="53.2" y="596.8" type="curve" smooth="yes"/>
      <point x="58.4" y="591.6"/>
      <point x="62.6" y="590.0"/>
      <point x="69.0" y="590.0" type="curve" smooth="yes"/>
      <point x="77.8" y="590.0"/>
      <point x="88.0" y="591.6"/>
      <point x="111.0" y="596.6" type="curve" smooth="yes"/>
      <point x="156.14460287299048" y="605.677322238781"/>
      <point x="217.31656441717791" y="610.0"/>
      <point x="311.0" y="610.0" type="curve" smooth="yes"/>
      <point x="384.2" y="610.0"/>
      <point x="425.59816620422095" y="601.4545947846176"/>
      <point x="472.4" y="567.4" type="curve"/>
      <point x="493.6" y="588.6"/>
      <point x="493.4" y="636.4"/>
      <point x="473.8" y="656.0" type="curve" smooth="yes"/>
      <point x="424.3565122884786" y="705.4434877115214"/>
      <point x="377.8" y="720.0"/>
      <point x="297.2" y="720.0" type="curve" smooth="yes"/>
      <point x="206.53023255813952" y="720.0"/>
      <point x="127.14957056207827" y="714.6355630789551"/>
    </contour>
    <contour>
      <point x="201.0" y="20.4" type="line"/>
      <point x="201.0" y="211.6"/>
      <point x="201.0" y="444.6"/>
      <point x="201.0" y="635.8" type="curve" smooth="yes"/>
      <point x="201.0" y="642.6"/>
      <point x="199.0" y="646.0"/>
      <point x="194.2" y="650.8" type="curve" smooth="yes"/>
      <point x="182.6" y="662.4"/>
      <point x="139.2" y="672.0"/>
      <point x="104.0" y="672.0" type="curve" smooth="yes"/>
      <point x="85.0" y="672.0" type="line"/>
      <point x="85.0" y="531.8"/>
      <point x="85.0" y="362.2"/>
      <point x="85.0" y="222.0" type="curve" smooth="yes"/>
      <point x="85.0" y="167.6"/>
      <point x="85.0" y="117.0"/>
      <point x="85.0" y="62.6" type="curve" smooth="yes"/>
      <point x="85.0" y="39.2"/>
      <point x="139.8" y="20.4"/>
      <point x="182.0" y="20.4" type="curve" smooth="yes"/>
    </contour>
    <contour>
      <point x="534.0" y="484.8" type="curve" smooth="yes"/>
      <point x="534.0" y="526.0" type="line" smooth="yes"/>
      <point x="534.0" y="571.4"/>
      <point x="516.8" y="614.8"/>
      <point x="473.8" y="656.0" type="curve" smooth="yes"/>
      <point x="440.6" y="687.4"/>
      <point x="390.8" y="688.4"/>
      <point x="359.4" y="661.2" type="curve"/>
      <point x="405.8" y="625.4"/>
      <point x="424.0" y="586.4"/>
      <point x="424.0" y="513.0" type="curve" smooth="yes"/>
      <point x="424.0" y="482.8" type="line" smooth="yes"/>
      <point x="424.0" y="397.8"/>
      <point x="347.0" y="364.0"/>
      <point x="239.6" y="364.0" type="curve" smooth="yes"/>
      <point x="205.0" y="364.0"/>
      <point x="192.6" y="367.6"/>
      <point x="171.0" y="379.6" type="curve"/>
      <point x="162.2" y="371.6"/>
      <point x="158.4" y="358.8"/>
      <point x="158.4" y="345.6" type="curve" smooth="yes"/>
      <point x="158.4" y="310.4"/>
      <point x="197.2" y="275.0"/>
      <point x="239.2" y="275.0" type="curve" smooth="yes"/>
      <point x="398.6" y="275.0"/>
      <point x="534.0" y="346.6"/>
    </contour>
    <contour>
      <point x="521.6" y="179.8" type="curve" smooth="yes"/>
      <point x="521.6" y="209.0" type="line" smooth="yes"/>
      <point x="521.6" y="255.2"/>
      <point x="501.0" y="298.4"/>
      <point x="450.4" y="335.8" type="curve" smooth="yes"/>
      <point x="419.0" y="361.8"/>
      <point x="380.2" y="353.4"/>
      <point x="353.0" y="334.8" type="curve"/>
      <point x="397.0" y="300.6"/>
      <point x="411.6" y="273.0"/>
      <point x="411.6" y="220.0" type="curve" smooth="yes"/>
      <point x="411.6" y="189.8" type="line" smooth="yes"/>
      <point x="411.6" y="128.0"/>
      <point x="343.4" y="97.0"/>
      <point x="259.4" y="97.0" type="curve" smooth="yes"/>
      <point x="176.4" y="97.0"/>
      <point x="142.2" y="104.4"/>
      <point x="101.6" y="120.19999999999999" type="curve"/>
      <point x="88.6" y="103.19999999999999"/>
      <point x="85.0" y="80.4"/>
      <point x="85.0" y="62.6" type="curve" smooth="yes"/>
      <point x="85.0" y="26.4"/>
      <point x="161.0" y="-10.0"/>
      <point x="262.4" y="-10.0" type="curve" smooth="yes"/>
      <point x="396.8" y="-10.0"/>
      <point x="521.6" y="60.0"/>
    </contour>
  </outline>
</glyph>
<glyph name="C" format="2">
  <advance width="600.0"/>
  <unicode hex="0043"/>
  <outline>
    <contour>
      <point x="525.0" y="409.6" type="line"/>
      <point x="525.0" y="573.2" type="line" smooth="yes"/>
      <point x="525.0" y="607.6"/>
      <point x="512.8" y="639.8"/>
      <point x="481.4" y="671.2" type="curve" smooth="yes"/>
      <point x="449.2" y="703.4"/>
      <point x="414.2" y="700.4"/>
      <point x="395.6" y="673.0" type="curve"/>
      <point x="405.8" y="657.4"/>
      <point x="415.0" y="623.8"/>
      <point x="415.0" y="597.4" type="curve" smooth="yes"/>
      <point x="415.0" y="451.8" type="line" smooth="yes"/>
      <point x="415.0" y="445.6"/>
      <point x="416.4" y="442.2"/>
      <point x="421.8" y="436.8" type="curve" smooth="yes"/>
      <point x="440.0" y="418.6"/>
      <point x="469.0" y="409.6"/>
      <point x="506.0" y="409.6" type="curve" smooth="yes"/>
    </contour>
    <contour>
      <point x="385.0" y="720.0" type="curve" smooth="yes"/>
      <point x="213.0" y="720.0"/>
      <point x="72.0" y="497.0"/>
      <point x="72.0" y="256.8" type="curve" smooth="yes"/>
      <point x="72.0" y="238.4" type="line" smooth="yes"/>
      <point x="72.0" y="183.77913043478262"/>
      <point x="127.2" y="124.8"/>
      <point x="197.2" y="118.0" type="curve"/>
      <point x="186.2565702509982" y="151.8169785997117"/>
      <point x="180.4" y="195.8"/>
      <point x="180.4" y="233.2" type="curve"/>
      <point x="180.4" y="246.4" type="line"/>
      <point x="180.4" y="436.8"/>
      <point x="287.8" y="610.6"/>
      <point x="386.2" y="610.6" type="curve" smooth="yes"/>
      <point x="411.8" y="610.6"/>
      <point x="435.4" y="603.6"/>
      <point x="461.8" y="587.2" type="curve"/>
      <point x="498.4" y="606.4"/>
      <point x="507.6" y="645.0"/>
      <point x="481.4" y="671.2" type="curve"/>
      <point x="453.8" y="698.8"/>
      <point x="423.0" y="720.0"/>
    </contour>
    <contour>
      <point x="326.4" y="-20.0" type="curve" smooth="yes"/>
      <point x="452.0017937219731" y="-20.0"/>
      <point x="549.6" y="35.4"/>
      <point x="549.6" y="87.6" type="curve" smooth="yes"/>
      <point x="549.6" y="126.2"/>
      <point x="549.6" y="160.0"/>
      <point x="549.6" y="178.8" type="curve"/>
      <point x="530.2" y="178.8" type="line"/>
      <point x="481.31716139833304" y="115.9677044518399"/>
      <point x="417.7433962264151" y="90.0"/>
      <point x="326.4" y="90.0" type="curve" smooth="yes"/>
      <point x="210.95294117647057" y="90.0"/>
      <point x="166.2" y="155.83300970873785"/>
      <point x="166.2" y="287.6" type="curve"/>
      <point x="110.4" y="288.2"/>
      <point x="72.0" y="277.2"/>
      <point x="72.0" y="252.0" type="curve" smooth="yes"/>
      <point x="72.0" y="238.4" type="line" smooth="yes"/>
      <point x="72.0" y="95.18317757009346"/>
      <point x="162.8920353982301" y="-20.0"/>
    </contour>
  </outline>
</glyph>
<glyph name="D" format="2">
  <advance width="600.0"/>
  <unicode hex="0044"/>
  <outline>
    <contour>
      <point x="35.0" y="700.0" type="curve"/>
      <point x="35.0" y="681.0" type="line" smooth="yes"/>
      <point x="35.0" y="645.4"/>
      <point x="39.2" y="610.8"/>
      <point x="53.2" y="596.8" type="curve" smooth="yes"/>
      <point x="58.4" y="591.6"/>
      <point x="62.6" y="590.0"/>
      <point x="69.0" y="590.0" type="curve" smooth="yes"/>
      <point x="77.8" y="590.0"/>
      <point x="88.0" y="591.6"/>
      <point x="111.0" y="596.6" type="curve" smooth="yes"/>
      <point x="151.8206423972218" y="604.7354229312017"/>
      <point x="206.62094926350247" y="610.0"/>
      <point x="291.0" y="610.0" type="curve" smooth="yes"/>
      <point x="367.2426229508197" y="610.0"/>
      <point x="407.8990959728793" y="597.1042072262167"/>
      <point x="458.8" y="559.0" type="curve"/>
      <point x="477.5134694270158" y="577.7134694270159"/>
      <point x="478.10258513870883" y="631.6974148612911"/>
      <point x="457.8" y="652.0" type="curve" smooth="yes"/>
      <point x="406.3051833371321" y="703.4948166628678"/>
      <point x="359.79763313609465" y="720.0"/>
      <point x="277.2" y="720.0" type="curve" smooth="yes"/>
      <point x="193.28543922984355" y="720.0"/>
      <point x="120.29712262701901" y="713.6901186644757"/>
    </contour>
    <contour>
      <point x="201.0" y="27.599999999999998" type="curve"/>
      <point x="201.0" y="214.2"/>
      <point x="201.0" y="449.00738552437224"/>
      <point x="201.0" y="635.8" type="curve" smooth="yes"/>
      <point x="201.0" y="642.6"/>
      <point x="199.0" y="646.0"/>
      <point x="194.2" y="650.8" type="curve" smooth="yes"/>
      <point x="182.6" y="662.4"/>
      <point x="139.2" y="672.0"/>
      <point x="104.0" y="672.0" type="curve" smooth="yes"/>
      <point x="85.0" y="672.0" type="line"/>
      <point x="85.0" y="531.0"/>
      <point x="85.0" y="359.0"/>
      <point x="85.0" y="218.0" type="curve" smooth="yes"/>
      <point x="85.0" y="170.09266547406082"/>
      <point x="85.0" y="120.86666666666666"/>
      <point x="85.0" y="72.6" type="curve" smooth="yes"/>
      <point x="85.0" y="46.8"/>
      <point x="139.4" y="27.599999999999998"/>
    </contour>
    <contour>
      <point x="534.0" y="313.8" type="curve" smooth="yes"/>
      <point x="534.0" y="418.0" type="line" smooth="yes"/>
      <point x="534.0" y="499.935593220339"/>
      <point x="525.6159725838414" y="584.1840274161585"/>
      <point x="457.8" y="652.0" type="curve" smooth="yes"/>
      <point x="425.3776172526966" y="684.4223827473033"/>
      <point x="374.07107532465034" y="687.2710753246503"/>
      <point x="340.2" y="657.6" type="curve"/>
      <point x="410.65962172510126" y="602.9006564431089"/>
      <point x="424.0" y="530.1893617021276"/>
      <point x="424.0" y="405.0" type="curve" smooth="yes"/>
      <point x="424.0" y="311.8" type="line" smooth="yes"/>
      <point x="424.0" y="182.0"/>
      <point x="352.79148936170213" y="103.0"/>
      <point x="238.0" y="103.0" type="curve" smooth="yes"/>
      <point x="178.273417721519" y="103.0"/>
      <point x="150.29484536082475" y="109.4"/>
      <point x="98.6" y="131.0" type="curve"/>
      <point x="88.95415816973862" y="118.37550702582524"/>
      <point x="85.0" y="95.6244514106583"/>
      <point x="85.0" y="72.6" type="curve" smooth="yes"/>
      <point x="85.0" y="35.29600000000001"/>
      <point x="163.2" y="-10.0"/>
      <point x="246.0" y="-10.0" type="curve" smooth="yes"/>
      <point x="409.0" y="-10.0"/>
      <point x="534.0" y="109.2"/>
    </contour>
  </outline>
</glyph>
<glyph name="E" format="2">
  <advance width="600.0"/>
  <unicode hex="0045"/>
  <outline>
    <contour>
      <point x="35.0" y="700.0" type="curve"/>
      <point x="35.0" y="681.0" type="line" smooth="yes"/>
      <point x="35.0" y="645.8"/>
      <point x="39.8" y="610.2"/>
      <point x="53.2" y="596.8" type="curve" smooth="yes"/>
      <point x="58.0" y="592.0"/>
      <point x="61.4" y="590.0"/>
      <point x="68.2" y="590.0" type="curve"/>
      <point x="125.57674418604651" y="590.0"/>
      <point x="183.62325581395348" y="590.0"/>
      <point x="241.0" y="590.0" type="curve" smooth="yes"/>
      <point x="329.4" y="590.0"/>
      <point x="453.6" y="590.0"/>
      <point x="542.0" y="590.0" type="curve"/>
      <point x="542.0" y="609.0" type="line" smooth="yes"/>
      <point x="542.0" y="630.4"/>
      <point x="526.4" y="669.6"/>
      <point x="502.8" y="693.2" type="curve" smooth="yes"/>
      <point x="498.0" y="698.0"/>
      <point x="494.6" y="700.0"/>
      <point x="487.8" y="700.0" type="curve" smooth="yes"/>
      <point x="345.4695652173913" y="700.0"/>
      <point x="177.3304347826087" y="700.0"/>
    </contour>
    <contour>
      <point x="201.0" y="57.8" type="line"/>
      <point x="201.0" y="252.0"/>
      <point x="201.0" y="437.6"/>
      <point x="201.0" y="631.8" type="curve" smooth="yes"/>
      <point x="201.0" y="638.6"/>
      <point x="199.0" y="642.0"/>
      <point x="194.2" y="646.8" type="curve" smooth="yes"/>
      <point x="182.6" y="658.4"/>
      <point x="139.2" y="668.0"/>
      <point x="104.0" y="668.0" type="curve" smooth="yes"/>
      <point x="85.0" y="668.0" type="line"/>
      <point x="85.0" y="564.8"/>
      <point x="85.0" y="411.2"/>
      <point x="85.0" y="308.0" type="curve" smooth="yes"/>
      <point x="85.0" y="220.39999999999998"/>
      <point x="85.0" y="187.6"/>
      <point x="85.0" y="100.0" type="curve" smooth="yes"/>
      <point x="85.0" y="93.19999999999999"/>
      <point x="87.0" y="89.8"/>
      <point x="91.8" y="85.0" type="curve" smooth="yes"/>
      <point x="110.6" y="66.19999999999999"/>
      <point x="146.8" y="57.8"/>
      <point x="182.0" y="57.8" type="curve" smooth="yes"/>
    </contour>
    <contour>
      <point x="135.0" y="380.0" type="curve"/>
      <point x="135.0" y="361.0" type="line" smooth="yes"/>
      <point x="135.0" y="325.8"/>
      <point x="143.4" y="307.6"/>
      <point x="162.2" y="288.8" type="curve" smooth="yes"/>
      <point x="167.0" y="284.0"/>
      <point x="170.4" y="282.0"/>
      <point x="177.2" y="282.0" type="curve"/>
      <point x="224.0" y="282.0"/>
      <point x="206.2" y="282.0"/>
      <point x="253.0" y="282.0" type="curve" smooth="yes"/>
      <point x="328.6" y="282.0"/>
      <point x="404.4" y="282.0"/>
      <point x="480.0" y="282.0" type="curve"/>
      <point x="480.0" y="301.0" type="line" smooth="yes"/>
      <point x="480.0" y="322.4"/>
      <point x="470.4" y="349.6"/>
      <point x="446.8" y="373.2" type="curve" smooth="yes"/>
      <point x="442.0" y="378.0"/>
      <point x="438.6" y="380.0"/>
      <point x="431.8" y="380.0" type="curve" smooth="yes"/>
      <point x="313.0" y="380.0"/>
      <point x="253.8" y="380.0"/>
    </contour>
    <contour>
      <point x="85.0" y="110.0" type="curve"/>
      <point x="85.0" y="91.0" type="line" smooth="yes"/>
      <point x="85.0" y="55.8"/>
      <point x="93.4" y="25.6"/>
      <point x="112.2" y="6.8" type="curve" smooth="yes"/>
      <point x="117.0" y="2.0"/>
      <point x="120.4" y="0.0"/>
      <point x="127.2" y="0.0" type="curve"/>
      <point x="176.8" y="0.0"/>
      <point x="161.4" y="0.0"/>
      <point x="211.0" y="0.0" type="curve" smooth="yes"/>
      <point x="298.21558441558443" y="0.0"/>
      <point x="454.78441558441557" y="0.0"/>
      <point x="542.0" y="0.0" type="curve"/>
      <point x="542.0" y="19.0" type="line" smooth="yes"/>
      <point x="542.0" y="40.4"/>
      <point x="526.4" y="79.6"/>
      <point x="502.8" y="103.19999999999999" type="curve" smooth="yes"/>
      <point x="498.0" y="108.0"/>
      <point x="494.6" y="110.0"/>
      <point x="487.8" y="110.0" type="curve" smooth="yes"/>
      <point x="355.1268292682927" y="110.0"/>
      <point x="217.67317073170733" y="110.0"/>
    </contour>
  </outline>
</glyph>
<glyph name="F" format="2">
  <advance width="600.0"/>
  <unicode hex="0046"/>
  <outline>
    <contour>
      <point x="201.0" y="-10.0" type="line"/>
      <point x="201.0" y="186.6975"/>
      <point x="201.0" y="435.1025"/>
      <point x="201.0" y="631.8" type="curve" smooth="yes"/>
      <point x="201.0" y="638.6"/>
      <point x="199.0" y="642.0"/>
      <point x="194.2" y="646.8" type="curve" smooth="yes"/>
      <point x="182.6" y="658.4"/>
      <point x="139.2" y="668.0"/>
      <point x="104.0" y="668.0" type="curve" smooth="yes"/>
      <point x="85.0" y="668.0" type="line"/>
      <point x="85.0" y="564.8"/>
      <point x="85.0" y="411.2"/>
      <point x="85.0" y="308.0" type="curve" smooth="yes"/>
      <point x="85.0" y="216.82482758620688"/>
      <point x="85.0" y="123.37517241379311"/>
      <point x="85.0" y="32.2" type="curve" smooth="yes"/>
      <point x="85.0" y="25.4"/>
      <point x="87.0" y="22.0"/>
      <point x="91.8" y="17.2" type="curve" smooth="yes"/>
      <point x="110.6" y="-1.6000000000000005"/>
      <point x="146.8" y="-10.0"/>
      <point x="182.0" y="-10.0" type="curve" smooth="yes"/>
    </contour>
    <contour>
      <point x="35.0" y="700.0" type="curve"/>
      <point x="35.0" y="681.0" type="line" smooth="yes"/>
      <point x="35.0" y="645.8"/>
      <point x="39.8" y="610.2"/>
      <point x="53.2" y="596.8" type="curve" smooth="yes"/>
      <point x="58.0" y="592.0"/>
      <point x="61.4" y="590.0"/>
      <point x="68.2" y="590.0" type="curve"/>
      <point x="125.57674418604651" y="590.0"/>
      <point x="183.62325581395348" y="590.0"/>
      <point x="241.0" y="590.0" type="curve" smooth="yes"/>
      <point x="329.4" y="590.0"/>
      <point x="453.6" y="590.0"/>
      <point x="542.0" y="590.0" type="curve"/>
      <point x="542.0" y="609.0" type="line" smooth="yes"/>
      <point x="542.0" y="630.4"/>
      <point x="526.4" y="669.6"/>
      <point x="502.8" y="693.2" type="curve" smooth="yes"/>
      <point x="498.0" y="698.0"/>
      <point x="494.6" y="700.0"/>
      <point x="487.8" y="700.0" type="curve" smooth="yes"/>
      <point x="345.4695652173913" y="700.0"/>
      <point x="177.3304347826087" y="700.0"/>
    </contour>
    <contour>
      <point x="117.0" y="330.0" type="curve"/>
      <point x="117.0" y="311.0" type="line" smooth="yes"/>
      <point x="117.0" y="275.8"/>
      <point x="125.4" y="245.6"/>
      <point x="144.2" y="226.8" type="curve" smooth="yes"/>
      <point x="149.0" y="222.0"/>
      <point x="152.4" y="220.0"/>
      <point x="159.2" y="220.0" type="curve"/>
      <point x="206.0" y="220.0"/>
      <point x="188.2" y="220.0"/>
      <point x="235.0" y="220.0" type="curve" smooth="yes"/>
      <point x="317.0864864864865" y="220.0"/>
      <point x="413.9135135135135" y="220.0"/>
      <point x="496.0" y="220.0" type="curve"/>
      <point x="496.0" y="239.0" type="line" smooth="yes"/>
      <point x="496.0" y="260.4"/>
      <point x="480.4" y="299.6"/>
      <point x="456.8" y="323.2" type="curve" smooth="yes"/>
      <point x="452.0" y="328.0"/>
      <point x="448.6" y="330.0"/>
      <point x="441.8" y="330.0" type="curve" smooth="yes"/>
      <point x="316.7459283387622" y="330.0"/>
      <point x="242.0540716612378" y="330.0"/>
    </contour>
  </outline>
</glyph>
<glyph name="G" format="2">
  <advance width="600.0"/>
  <unicode hex="0047"/>
  <outline>
    <contour>
      <point x="525.0" y="460.8" type="line"/>
      <point x="525.0" y="573.2" type="line" smooth="yes"/>
      <point x="525.0" y="607.6"/>
      <point x="512.8" y="639.8"/>
      <point x="481.4" y="671.2" type="curve" smooth="yes"/>
      <point x="449.2" y="703.4"/>
      <point x="414.2" y="700.4"/>
      <point x="395.6" y="673.0" type="curve"/>
      <point x="405.8" y="657.4"/>
      <point x="415.0" y="623.8"/>
      <point x="415.0" y="597.4" type="curve" smooth="yes"/>
      <point x="415.0" y="503.0" type="line" smooth="yes"/>
      <point x="415.0" y="496.8"/>
      <point x="416.4" y="493.4"/>
      <point x="421.8" y="488.0" type="curve" smooth="yes"/>
      <point x="440.0" y="469.8"/>
      <point x="469.0" y="460.8"/>
      <point x="506.0" y="460.8" type="curve" smooth="yes"/>
    </contour>
    <contour>
      <point x="379.4" y="720.0" type="curve" smooth="yes"/>
      <point x="212.4" y="720.0"/>
      <point x="72.0" y="595.8"/>
      <point x="72.0" y="344.8" type="curve" smooth="yes"/>
      <point x="72.0" y="238.4" type="line" smooth="yes"/>
      <point x="72.0" y="183.8"/>
      <point x="127.2" y="124.8"/>
      <point x="197.2" y="118.0" type="curve"/>
      <point x="186.2" y="152.0"/>
      <point x="180.4" y="195.8"/>
      <point x="180.4" y="233.2" type="curve" smooth="yes"/>
      <point x="180.4" y="339.6" type="line" smooth="yes"/>
      <point x="180.4" y="532.6"/>
      <point x="285.0" y="616.6"/>
      <point x="380.6" y="616.6" type="curve" smooth="yes"/>
      <point x="411.8" y="616.6"/>
      <point x="435.4" y="609.6"/>
      <point x="461.8" y="593.2" type="curve"/>
      <point x="498.4" y="612.4"/>
      <point x="507.6" y="645.0"/>
      <point x="481.4" y="671.2" type="curve"/>
      <point x="453.8" y="698.8"/>
      <point x="423.0" y="720.0"/>
    </contour>
    <contour>
      <point x="326.4" y="-20.0" type="curve" smooth="yes"/>
      <point x="440.4" y="-20.0"/>
      <point x="530.2" y="48.6"/>
      <point x="530.2" y="142.8" type="curve" smooth="yes"/>
      <point x="530.2" y="189.8"/>
      <point x="514.2" y="232.2"/>
      <point x="493.6" y="252.8" type="curve" smooth="yes"/>
      <point x="485.8" y="260.6"/>
      <point x="469.2" y="267.2"/>
      <point x="455.6" y="267.2" type="curve"/>
      <point x="460.4" y="250.4"/>
      <point x="462.2" y="235.0"/>
      <point x="462.2" y="215.8" type="curve" smooth="yes"/>
      <point x="462.2" y="123.0"/>
      <point x="401.6" y="90.0"/>
      <point x="326.4" y="90.0" type="curve" smooth="yes"/>
      <point x="211.0" y="90.0"/>
      <point x="167.8" y="156.4"/>
      <point x="167.8" y="294.0" type="curve"/>
      <point x="112.0" y="294.6"/>
      <point x="72.0" y="325.2"/>
      <point x="72.0" y="300.0" type="curve" smooth="yes"/>
      <point x="72.0" y="238.4" type="line" smooth="yes"/>
      <point x="72.0" y="95.0"/>
      <point x="162.8" y="-20.0"/>
    </contour>
    <contour>
      <point x="311.0" y="333.0" type="curve"/>
      <point x="311.0" y="314.0" type="line" smooth="yes"/>
      <point x="311.0" y="278.8"/>
      <point x="319.4" y="260.6"/>
      <point x="338.2" y="241.8" type="curve" smooth="yes"/>
      <point x="343.0" y="237.0"/>
      <point x="346.4" y="235.0"/>
      <point x="353.2" y="235.0" type="curve"/>
      <point x="400.0" y="235.0"/>
      <point x="362.2" y="235.0"/>
      <point x="409.0" y="235.0" type="curve" smooth="yes"/>
      <point x="466.7176470588235" y="235.0"/>
      <point x="518.2823529411764" y="235.0"/>
      <point x="576.0" y="235.0" type="curve"/>
      <point x="576.0" y="254.0" type="line" smooth="yes"/>
      <point x="576.0" y="275.4"/>
      <point x="566.4" y="302.6"/>
      <point x="542.8" y="326.2" type="curve" smooth="yes"/>
      <point x="538.0" y="331.0"/>
      <point x="534.6" y="333.0"/>
      <point x="527.8" y="333.0" type="curve" smooth="yes"/>
      <point x="433.41379310344826" y="333.0"/>
      <point x="405.38620689655176" y="333.0"/>
    </contour>
  </outline>
</glyph>
<glyph name="H" format="2">
  <advance width="600.0"/>
  <unicode hex="0048"/>
  <outline>
    <contour>
      <point x="201.0" y="-10.0" type="line"/>
      <point x="201.0" y="189.4"/>
      <point x="201.0" y="474.4"/>
      <point x="201.0" y="673.8" type="curve" smooth="yes"/>
      <point x="201.0" y="680.6"/>
      <point x="199.0" y="684.0"/>
      <point x="194.2" y="688.8" type="curve" smooth="yes"/>
      <point x="182.6" y="700.4"/>
      <point x="139.2" y="710.0"/>
      <point x="104.0" y="710.0" type="curve" smooth="yes"/>
      <point x="85.0" y="710.0" type="line"/>
      <point x="85.0" y="604.4"/>
      <point x="85.0" y="413.6"/>
      <point x="85.0" y="308.0" type="curve" smooth="yes"/>
      <point x="85.0" y="216.8"/>
      <point x="85.0" y="123.4"/>
      <point x="85.0" y="32.2" type="curve" smooth="yes"/>
      <point x="85.0" y="25.4"/>
      <point x="87.0" y="22.0"/>
      <point x="91.8" y="17.2" type="curve" smooth="yes"/>
      <point x="110.6" y="-1.6000000000000005"/>
      <point x="146.8" y="-10.0"/>
      <point x="182.0" y="-10.0" type="curve" smooth="yes"/>
    </contour>
    <contour>
      <point x="521.0" y="-10.0" type="line"/>
      <point x="521.0" y="189.603007518797"/>
      <point x="521.0" y="474.196992481203"/>
      <point x="521.0" y="673.8" type="curve" smooth="yes"/>
      <point x="521.0" y="680.6"/>
      <point x="519.0" y="684.0"/>
      <point x="514.2" y="688.8" type="curve" smooth="yes"/>
      <point x="502.6" y="700.4"/>
      <point x="459.2" y="710.0"/>
      <point x="424.0" y="710.0" type="curve" smooth="yes"/>
      <point x="405.0" y="710.0" type="line"/>
      <point x="405.0" y="604.2064516129032"/>
      <point x="405.0" y="413.79354838709673"/>
      <point x="405.0" y="308.0" type="curve" smooth="yes"/>
      <point x="405.0" y="216.8"/>
      <point x="405.0" y="123.4"/>
      <point x="405.0" y="32.2" type="curve" smooth="yes"/>
      <point x="405.0" y="25.4"/>
      <point x="407.0" y="22.0"/>
      <point x="411.8" y="17.2" type="curve" smooth="yes"/>
      <point x="430.6" y="-1.6000000000000005"/>
      <point x="466.8" y="-10.0"/>
      <point x="502.0" y="-10.0" type="curve" smooth="yes"/>
    </contour>
    <contour>
      <point x="35.0" y="360.0" type="curve"/>
      <point x="35.0" y="341.0" type="line" smooth="yes"/>
      <point x="35.0" y="305.8"/>
      <point x="43.4" y="275.6"/>
      <point x="62.2" y="256.8" type="curve" smooth="yes"/>
      <point x="67.0" y="252.0"/>
      <point x="70.4" y="250.0"/>
      <point x="77.2" y="250.0" type="curve"/>
      <point x="134.5767441860465" y="250.0"/>
      <point x="183.62325581395348" y="250.0"/>
      <point x="241.0" y="250.0" type="curve"/>
      <point x="321.4" y="250.0"/>
      <point x="411.6" y="250.0"/>
      <point x="492.0" y="250.0" type="curve"/>
      <point x="492.0" y="269.0" type="line" smooth="yes"/>
      <point x="492.0" y="290.4"/>
      <point x="476.4" y="329.6"/>
      <point x="452.8" y="353.2" type="curve" smooth="yes"/>
      <point x="448.0" y="358.0"/>
      <point x="444.6" y="360.0"/>
      <point x="437.8" y="360.0" type="curve" smooth="yes"/>
      <point x="303.4785529715762" y="360.0"/>
      <point x="169.32144702842376" y="360.0"/>
    </contour>
  </outline>
</glyph>
<glyph name="I" format="2">
  <advance width="600.0"/>
  <unicode hex="0049"/>
  <outline>
    <contour>
      <point x="58.0" y="700.0" type="curve"/>
      <point x="58.0" y="681.0" type="line" smooth="yes"/>
      <point x="58.0" y="645.8"/>
      <point x="66.4" y="615.6"/>
      <point x="85.2" y="596.8" type="curve" smooth="yes"/>
      <point x="90.0" y="592.0"/>
      <point x="93.4" y="590.0"/>
      <point x="100.2" y="590.0" type="curve"/>
      <point x="154.6" y="590.0"/>
      <point x="186.6" y="590.0"/>
      <point x="241.0" y="590.0" type="curve"/>
      <point x="329.4" y="590.0"/>
      <point x="453.6" y="590.0"/>
      <point x="542.0" y="590.0" type="curve"/>
      <point x="542.0" y="609.0" type="line" smooth="yes"/>
      <point x="542.0" y="630.4"/>
      <point x="526.4" y="669.6"/>
      <point x="502.8" y="693.2" type="curve" smooth="yes"/>
      <point x="498.0" y="698.0"/>
      <point x="494.6" y="700.0"/>
      <point x="487.8" y="700.0" type="curve" smooth="yes"/>
      <point x="348.6" y="700.0"/>
      <point x="197.2" y="700.0"/>
    </contour>
    <contour>
      <point x="355.0" y="32.0" type="line"/>
      <point x="355.0" y="225.8"/>
      <point x="355.0" y="438.0"/>
      <point x="355.0" y="631.8" type="curve" smooth="yes"/>
      <point x="355.0" y="638.6"/>
      <point x="353.0" y="642.0"/>
      <point x="348.2" y="646.8" type="curve" smooth="yes"/>
      <point x="336.6" y="658.4"/>
      <point x="293.2" y="668.0"/>
      <point x="258.0" y="668.0" type="curve" smooth="yes"/>
      <point x="239.0" y="668.0" type="line"/>
      <point x="239.0" y="564.8"/>
      <point x="239.0" y="411.2"/>
      <point x="239.0" y="308.0" type="curve" smooth="yes"/>
      <point x="239.0" y="220.8"/>
      <point x="239.0" y="161.39999999999998"/>
      <point x="239.0" y="74.2" type="curve" smooth="yes"/>
      <point x="239.0" y="67.4"/>
      <point x="241.0" y="64.0"/>
      <point x="245.8" y="59.2" type="curve" smooth="yes"/>
      <point x="264.6" y="40.4"/>
      <point x="300.8" y="32.0"/>
      <point x="336.0" y="32.0" type="curve" smooth="yes"/>
    </contour>
    <contour>
      <point x="58.0" y="110.0" type="curve"/>
      <point x="58.0" y="91.0" type="line" smooth="yes"/>
      <point x="58.0" y="55.8"/>
      <point x="66.4" y="25.6"/>
      <point x="85.2" y="6.8" type="curve" smooth="yes"/>
      <point x="90.0" y="2.0"/>
      <point x="93.4" y="0.0"/>
      <point x="100.2" y="0.0" type="curve"/>
      <point x="154.6" y="0.0"/>
      <point x="186.6" y="0.0"/>
      <point x="241.0" y="0.0" type="curve"/>
      <point x="329.4" y="0.0"/>
      <point x="453.6" y="0.0"/>
      <point x="542.0" y="0.0" type="curve"/>
      <point x="542.0" y="19.0" type="line" smooth="yes"/>
      <point x="542.0" y="40.4"/>
      <point x="526.4" y="79.6"/>
      <point x="502.8" y="103.19999999999999" type="curve" smooth="yes"/>
      <point x="498.0" y="108.0"/>
      <point x="494.6" y="110.0"/>
      <point x="487.8" y="110.0" type="curve" smooth="yes"/>
      <point x="348.6" y="110.0"/>
      <point x="197.2" y="110.0"/>
    </contour>
  </outline>
</glyph>
<glyph name="L" format="2">
  <advance width="600.0"/>
  <unicode hex="004C"/>
  <outline>
    <contour>
      <point x="195.0" y="57.8" type="line"/>
      <point x="195.0" y="254.77499999999998"/>
      <point x="195.0" y="476.825"/>
      <point x="195.0" y="673.8" type="curve" smooth="yes"/>
      <point x="195.0" y="680.6"/>
      <point x="193.0" y="684.0"/>
      <point x="188.2" y="688.8" type="curve" smooth="yes"/>
      <point x="176.6" y="700.4"/>
      <point x="133.2" y="710.0"/>
      <point x="98.0" y="710.0" type="curve" smooth="yes"/>
      <point x="79.0" y="710.0" type="line"/>
      <point x="79.0" y="604.4"/>
      <point x="79.0" y="413.6"/>
      <point x="79.0" y="308.0" type="curve" smooth="yes"/>
      <point x="79.0" y="220.39999999999998"/>
      <point x="79.0" y="187.6"/>
      <point x="79.0" y="100.0" type="curve" smooth="yes"/>
      <point x="79.0" y="93.19999999999999"/>
      <point x="81.0" y="89.8"/>
      <point x="85.8" y="85.0" type="curve" smooth="yes"/>
      <point x="104.6" y="66.19999999999999"/>
      <point x="140.8" y="57.8"/>
      <point x="176.0" y="57.8" type="curve" smooth="yes"/>
    </contour>
    <contour>
      <point x="79.0" y="110.0" type="curve"/>
      <point x="79.0" y="91.0" type="line" smooth="yes"/>
      <point x="79.0" y="55.8"/>
      <point x="87.4" y="25.6"/>
      <point x="106.2" y="6.8" type="curve" smooth="yes"/>
      <point x="111.0" y="2.0"/>
      <point x="114.4" y="0.0"/>
      <point x="121.2" y="0.0" type="curve"/>
      <point x="170.8" y="0.0"/>
      <point x="155.4" y="0.0"/>
      <point x="205.0" y="0.0" type="curve" smooth="yes"/>
      <point x="295.7688311688312" y="0.0"/>
      <point x="463.2311688311688" y="0.0"/>
      <point x="554.0" y="0.0" type="curve"/>
      <point x="554.0" y="19.0" type="line" smooth="yes"/>
      <point x="554.0" y="40.4"/>
      <point x="538.4" y="79.6"/>
      <point x="514.8" y="103.19999999999999" type="curve" smooth="yes"/>
      <point x="510.0" y="108.0"/>
      <point x="506.6" y="110.0"/>
      <point x="499.8" y="110.0" type="curve" smooth="yes"/>
      <point x="361.9463414634146" y="110.0"/>
      <point x="216.85365853658536" y="110.0"/>
    </contour>
  </outline>
</glyph>
<glyph name="P" format="2">
  <advance width="600.0"/>
  <unicode hex="0050"/>
  <outline>
    <contour>
      <point x="35.0" y="700.0" type="curve"/>
      <point x="35.0" y="681.0" type="line" smooth="yes"/>
      <point x="35.0" y="645.4"/>
      <point x="39.2" y="610.8"/>
      <point x="53.2" y="596.8" type="curve" smooth="yes"/>
      <point x="58.4" y="591.6"/>
      <point x="62.6" y="590.0"/>
      <point x="69.0" y="590.0" type="curve" smooth="yes"/>
      <point x="77.8" y="590.0"/>
      <point x="88.0" y="591.6"/>
      <point x="111.0" y="596.6" type="curve" smooth="yes"/>
      <point x="156.2" y="605.6"/>
      <point x="217.4" y="610.0"/>
      <point x="311.0" y="610.0" type="curve" smooth="yes"/>
      <point x="384.2" y="610.0"/>
      <point x="424.2" y="598.8"/>
      <point x="472.4" y="563.4" type="curve"/>
      <point x="493.6" y="584.6"/>
      <point x="493.4" y="632.4"/>
      <point x="473.8" y="652.0" type="curve" smooth="yes"/>
      <point x="423.0" y="702.8"/>
      <point x="377.8" y="720.0"/>
      <point x="297.2" y="720.0" type="curve" smooth="yes"/>
      <point x="206.4" y="720.0"/>
      <point x="127.2" y="714.8"/>
    </contour>
    <contour>
      <point x="201.0" y="-10.0" type="line"/>
      <point x="201.0" y="189.4"/>
      <point x="201.0" y="436.4"/>
      <point x="201.0" y="635.8" type="curve" smooth="yes"/>
      <point x="201.0" y="642.6"/>
      <point x="199.0" y="646.0"/>
      <point x="194.2" y="650.8" type="curve" smooth="yes"/>
      <point x="182.6" y="662.4"/>
      <point x="139.2" y="672.0"/>
      <point x="104.0" y="672.0" type="curve" smooth="yes"/>
      <point x="85.0" y="672.0" type="line"/>
      <point x="85.0" y="531.0"/>
      <point x="85.0" y="359.0"/>
      <point x="85.0" y="218.0" type="curve" smooth="yes"/>
      <point x="85.0" y="156.8"/>
      <point x="85.0" y="93.4"/>
      <point x="85.0" y="32.2" type="curve" smooth="yes"/>
      <point x="85.0" y="25.4"/>
      <point x="87.0" y="22.0"/>
      <point x="91.8" y="17.2" type="curve" smooth="yes"/>
      <point x="110.6" y="-1.6000000000000005"/>
      <point x="146.8" y="-10.0"/>
      <point x="182.0" y="-10.0" type="curve" smooth="yes"/>
    </contour>
    <contour>
      <point x="534.0" y="464.8" type="curve" smooth="yes"/>
      <point x="534.0" y="522.0" type="line" smooth="yes"/>
      <point x="534.0" y="567.4"/>
      <point x="516.8" y="610.8"/>
      <point x="473.8" y="652.0" type="curve" smooth="yes"/>
      <point x="440.6" y="683.4"/>
      <point x="390.8" y="684.4"/>
      <point x="359.4" y="657.2" type="curve"/>
      <point x="405.8" y="621.4"/>
      <point x="424.0" y="582.4"/>
      <point x="424.0" y="509.0" type="curve" smooth="yes"/>
      <point x="424.0" y="462.8" type="line" smooth="yes"/>
      <point x="424.0" y="346.6"/>
      <point x="347.8" y="274.0"/>
      <point x="241.6" y="274.0" type="curve" smooth="yes"/>
      <point x="217.2" y="274.0"/>
      <point x="205.6" y="275.2"/>
      <point x="185.4" y="280.0" type="curve"/>
      <point x="180.2" y="273.4"/>
      <point x="176.4" y="262.6"/>
      <point x="176.4" y="251.6" type="curve" smooth="yes"/>
      <point x="176.4" y="213.0"/>
      <point x="226.0" y="161.0"/>
      <point x="272.8" y="161.0" type="curve" smooth="yes"/>
      <point x="411.8" y="161.0"/>
      <point x="534.0" y="273.4"/>
    </contour>
  </outline>
</glyph>
<glyph name="R" format="2">
  <advance width="600.0"/>
  <unicode hex="0052"/>
  <outline>
    <contour>
      <point x="35.0" y="700.0" type="curve"/>
      <point x="35.0" y="681.0" type="line" smooth="yes"/>
      <point x="35.0" y="645.4"/>
      <point x="39.2" y="610.8"/>
      <point x="53.2" y="596.8" type="curve" smooth="yes"/>
      <point x="58.4" y="591.6"/>
      <point x="62.6" y="590.0"/>
      <point x="69.0" y="590.0" type="curve" smooth="yes"/>
      <point x="77.8" y="590.0"/>
      <point x="88.0" y="591.6"/>
      <point x="111.0" y="596.6" type="curve" smooth="yes"/>
      <point x="156.14460287299048" y="605.677322238781"/>
      <point x="217.31656441717791" y="610.0"/>
      <point x="311.0" y="610.0" type="curve" smooth="yes"/>
      <point x="384.2" y="610.0"/>
      <point x="424.2" y="598.8"/>
      <point x="472.4" y="563.4" type="curve"/>
      <point x="493.6" y="584.6"/>
      <point x="493.4" y="632.4"/>
      <point x="473.8" y="652.0" type="curve" smooth="yes"/>
      <point x="423.0" y="702.8"/>
      <point x="377.8" y="720.0"/>
      <point x="297.2" y="720.0" type="curve" smooth="yes"/>
      <point x="206.53023255813952" y="720.0"/>
      <point x="127.14957056207827" y="714.6355630789551"/>
    </contour>
    <contour>
      <point x="201.0" y="-10.0" type="line"/>
      <point x="201.0" y="189.4"/>
      <point x="201.0" y="436.4"/>
      <point x="201.0" y="635.8" type="curve" smooth="yes"/>
      <point x="201.0" y="642.6"/>
      <point x="199.0" y="646.0"/>
      <point x="194.2" y="650.8" type="curve" smooth="yes"/>
      <point x="182.6" y="662.4"/>
      <point x="139.2" y="672.0"/>
      <point x="104.0" y="672.0" type="curve" smooth="yes"/>
      <point x="85.0" y="672.0" type="line"/>
      <point x="85.0" y="531.0"/>
      <point x="85.0" y="359.0"/>
      <point x="85.0" y="218.0" type="curve" smooth="yes"/>
      <point x="85.0" y="156.8"/>
      <point x="85.0" y="93.4"/>
      <point x="85.0" y="32.2" type="curve" smooth="yes"/>
      <point x="85.0" y="25.4"/>
      <point x="87.0" y="22.0"/>
      <point x="91.8" y="17.2" type="curve" smooth="yes"/>
      <point x="110.6" y="-1.6000000000000005"/>
      <point x="146.8" y="-10.0"/>
      <point x="182.0" y="-10.0" type="curve" smooth="yes"/>
    </contour>
    <contour>
      <point x="534.0" y="480.8" type="curve" smooth="yes"/>
      <point x="534.0" y="522.0" type="line" smooth="yes"/>
      <point x="534.0" y="567.4"/>
      <point x="516.8" y="610.8"/>
      <point x="473.8" y="652.0" type="curve" smooth="yes"/>
      <point x="440.6" y="683.4"/>
      <point x="390.8" y="684.4"/>
      <point x="359.4" y="657.2" type="curve"/>
      <point x="405.8" y="621.4"/>
      <point x="424.0" y="582.4"/>
      <point x="424.0" y="509.0" type="curve" smooth="yes"/>
      <point x="424.0" y="478.8" type="line" smooth="yes"/>
      <point x="424.0" y="356.0"/>
      <point x="340.6" y="280.0"/>
      <point x="223.6" y="280.0" type="curve" smooth="yes"/>
      <point x="197.4" y="280.0"/>
      <point x="188.2" y="282.4"/>
      <point x="171.0" y="290.8" type="curve"/>
      <point x="162.2" y="282.4"/>
      <point x="158.4" y="270.4"/>
      <point x="158.4" y="257.6" type="curve" smooth="yes"/>
      <point x="158.4" y="221.4"/>
      <point x="197.2" y="185.0"/>
      <point x="239.2" y="185.0" type="curve" smooth="yes"/>
      <point x="398.6" y="185.0"/>
      <point x="534.0" y="303.8"/>
    </contour>
    <contour>
      <point x="353.0" y="289.0" type="line"/>
      <point x="287.8" y="252.6"/>
      <point x="261.8" y="224.6"/>
      <point x="274.4" y="205.0" type="curve" smooth="yes"/>
      <point x="374.6" y="65.0" type="line" smooth="yes"/>
      <point x="417.0" y="4.2"/>
      <point x="453.8" y="-20.0"/>
      <point x="503.0" y="-20.0" type="curve" smooth="yes"/>
      <point x="541.8" y="-20.0"/>
      <point x="562.0" y="-3.2"/>
      <point x="562.0" y="30.2" type="curve" smooth="yes"/>
      <point x="562.0" y="110.0" type="line"/>
      <point x="549.0" y="110.0" type="line"/>
      <point x="542.8" y="105.6"/>
      <point x="532.6" y="102.0"/>
      <point x="524.0" y="102.0" type="curve" smooth="yes"/>
      <point x="490.0" y="102.0"/>
      <point x="467.8" y="116.0"/>
      <point x="446.2" y="150.8" type="curve" smooth="yes"/>
    </contour>
  </outline>
</glyph>
<glyph name="S" format="2">
  <advance width="600.0"/>
  <unicode hex="0053"/>
  <outline>
    <contour>
      <point x="383.0" y="320.6" type="curve" smooth="yes"/>
      <point x="292.6" y="353.4" type="line" smooth="yes"/>
      <point x="202.29092724956544" y="385.96919123839376"/>
      <point x="185.2" y="409.609375"/>
      <point x="185.2" y="447.8" type="curve" smooth="yes"/>
      <point x="185.2" y="467.0"/>
      <point x="188.0" y="494.6"/>
      <point x="196.6" y="524.8" type="curve"/>
      <point x="132.9091179218899" y="520.4952824518804"/>
      <point x="78.0" y="496.0"/>
      <point x="78.0" y="430.8" type="curve" smooth="yes"/>
      <point x="78.0" y="368.8"/>
      <point x="113.0" y="323.2"/>
      <point x="259.6" y="269.0" type="curve" smooth="yes"/>
      <point x="349.2" y="235.8" type="line" smooth="yes"/>
      <point x="455.76907331377464" y="196.17429830185128"/>
      <point x="465.59697288683606" y="162.78465390300263"/>
      <point x="466.0" y="100.4" type="curve"/>
      <point x="496.52941176470586" y="100.4"/>
      <point x="539.6" y="135.875"/>
      <point x="539.6" y="170.0" type="curve"/>
      <point x="539.6" y="222.51267605633802"/>
      <point x="502.6092936601557" y="277.2248458415903"/>
    </contour>
    <contour>
      <point x="300.0" y="-20.0" type="curve" smooth="yes"/>
      <point x="448.0" y="-20.0"/>
      <point x="539.6" y="39.4"/>
      <point x="539.6" y="120.4" type="curve" smooth="yes"/>
      <point x="539.6" y="170.0" type="line" smooth="yes"/>
      <point x="539.6" y="184.4"/>
      <point x="510.6" y="192.4"/>
      <point x="476.4" y="192.4" type="curve"/>
      <point x="462.0" y="121.4"/>
      <point x="405.4" y="90.0"/>
      <point x="300.0" y="90.0" type="curve" smooth="yes"/>
      <point x="201.8" y="90.0"/>
      <point x="133.4" y="120.6"/>
      <point x="80.2" y="178.8" type="curve"/>
      <point x="60.8" y="178.8" type="line"/>
      <point x="60.8" y="160.0"/>
      <point x="60.8" y="126.2"/>
      <point x="60.8" y="87.6" type="curve" smooth="yes"/>
      <point x="60.8" y="35.4"/>
      <point x="166.0" y="-20.0"/>
    </contour>
    <contour>
      <point x="385.0" y="720.0" type="curve" smooth="yes"/>
      <point x="246.4" y="720.0"/>
      <point x="78.0" y="577.4"/>
      <point x="78.0" y="472.6" type="curve" smooth="yes"/>
      <point x="78.0" y="430.8" type="line" smooth="yes"/>
      <point x="78.0" y="403.0"/>
      <point x="133.0" y="376.2"/>
      <point x="191.8" y="373.8" type="curve"/>
      <point x="185.2" y="398.2"/>
      <point x="185.2" y="424.0"/>
      <point x="185.2" y="447.8" type="curve" smooth="yes"/>
      <point x="185.2" y="521.2"/>
      <point x="301.0" y="618.4"/>
      <point x="386.2" y="618.4" type="curve" smooth="yes"/>
      <point x="409.0" y="618.4"/>
      <point x="431.0" y="616.2"/>
      <point x="456.2" y="602.2" type="curve"/>
      <point x="497.6" y="623.2"/>
      <point x="506.8" y="653.0"/>
      <point x="479.4" y="680.4" type="curve"/>
      <point x="454.4" y="705.4"/>
      <point x="420.2" y="720.0"/>
    </contour>
    <contour>
      <point x="515.0" y="450.0" type="line"/>
      <point x="515.0" y="593.0" type="line" smooth="yes"/>
      <point x="515.0" y="625.8"/>
      <point x="506.8" y="653.0"/>
      <point x="479.4" y="680.4" type="curve" smooth="yes"/>
      <point x="450.2" y="709.6"/>
      <point x="410.4" y="709.4"/>
      <point x="390.0" y="680.2" type="curve"/>
      <point x="400.2" y="664.6"/>
      <point x="405.0" y="635.8"/>
      <point x="405.0" y="609.4" type="curve" smooth="yes"/>
      <point x="405.0" y="492.2" type="line" smooth="yes"/>
      <point x="405.0" y="486.0"/>
      <point x="406.4" y="482.6"/>
      <point x="411.8" y="477.2" type="curve" smooth="yes"/>
      <point x="430.0" y="459.0"/>
      <point x="459.0" y="450.0"/>
      <point x="496.0" y="450.0" type="curve" smooth="yes"/>
    </contour>
  </outline>
</glyph>
<glyph name="T" format="2">
  <advance width="600.0"/>
  <unicode hex="0054"/>
  <outline>
    <contour>
      <point x="358.0" y="-13.0" type="line"/>
      <point x="358.0" y="183.56923076923078"/>
      <point x="358.0" y="435.2307692307692"/>
      <point x="358.0" y="631.8" type="curve" smooth="yes"/>
      <point x="358.0" y="638.6"/>
      <point x="356.0" y="642.0"/>
      <point x="351.2" y="646.8" type="curve" smooth="yes"/>
      <point x="339.6" y="658.4"/>
      <point x="296.2" y="668.0"/>
      <point x="261.0" y="668.0" type="curve" smooth="yes"/>
      <point x="242.0" y="668.0" type="line"/>
      <point x="242.0" y="564.8"/>
      <point x="242.0" y="381.2"/>
      <point x="242.0" y="278.0" type="curve" smooth="yes"/>
      <point x="242.0" y="186.8281690140845"/>
      <point x="242.0" y="120.3718309859155"/>
      <point x="242.0" y="29.2" type="curve" smooth="yes"/>
      <point x="242.0" y="22.4"/>
      <point x="244.0" y="19.0"/>
      <point x="248.8" y="14.2" type="curve" smooth="yes"/>
      <point x="267.6" y="-4.6"/>
      <point x="303.8" y="-13.0"/>
      <point x="339.0" y="-13.0" type="curve" smooth="yes"/>
    </contour>
    <contour>
      <point x="38.0" y="700.0" type="curve"/>
      <point x="38.0" y="681.0" type="line" smooth="yes"/>
      <point x="38.0" y="645.8"/>
      <point x="46.4" y="615.6"/>
      <point x="65.2" y="596.8" type="curve" smooth="yes"/>
      <point x="70.0" y="592.0"/>
      <point x="73.4" y="590.0"/>
      <point x="80.2" y="590.0" type="curve"/>
      <point x="137.5767441860465" y="590.0"/>
      <point x="147.62325581395348" y="590.0"/>
      <point x="205.0" y="590.0" type="curve"/>
      <point x="296.6301886792453" y="590.0"/>
      <point x="470.3698113207547" y="590.0"/>
      <point x="562.0" y="590.0" type="curve"/>
      <point x="562.0" y="609.0" type="line" smooth="yes"/>
      <point x="562.0" y="630.4"/>
      <point x="546.4" y="669.6"/>
      <point x="522.8" y="693.2" type="curve" smooth="yes"/>
      <point x="518.0" y="698.0"/>
      <point x="514.6" y="700.0"/>
      <point x="507.8" y="700.0" type="curve" smooth="yes"/>
      <point x="362.2665207877462" y="700.0"/>
      <point x="183.4608695652174" y="700.0"/>
    </contour>
  </outline>
</glyph>
<glyph name="a" format="2">
  <advance width="600.0"/>
  <unicode hex="0061"/>
  <outline>
    <contour>
      <point x="230.4" y="550.0" type="curve" smooth="yes"/>
      <point x="167.0" y="550.0"/>
      <point x="114.08485906358615" y="539.0848590635861"/>
      <point x="100.2" y="525.2" type="curve" smooth="yes"/>
      <point x="92.0" y="517.0"/>
      <point x="89.8" y="508.8"/>
      <point x="89.8" y="497.4" type="curve"/>
      <point x="89.8" y="423.2" type="line"/>
      <point x="105.8" y="423.2" type="line"/>
      <point x="154.0" y="437.2"/>
      <point x="223.1677419354839" y="446.0"/>
      <point x="275.4" y="446.0" type="curve" smooth="yes"/>
      <point x="343.9818181818182" y="446.0"/>
      <point x="384.6" y="439.4"/>
      <point x="449.4" y="422.8" type="curve"/>
      <point x="464.0" y="446.4"/>
      <point x="461.31928851253883" y="472.0807114874612"/>
      <point x="422.4" y="510.4" type="curve"/>
      <point x="392.71544604205593" y="539.2300085033986"/>
      <point x="337.02222222222224" y="550.0"/>
    </contour>
    <contour>
      <point x="370.4" y="506.8" type="curve"/>
      <point x="386.4" y="423.0"/>
      <point x="382.9613816772821" y="365.995322889595"/>
      <point x="377.0" y="303.2" type="curve" smooth="yes"/>
      <point x="377.0" y="230.6"/>
      <point x="377.0" y="191.52592592592592"/>
      <point x="377.0" y="133.6" type="curve" smooth="yes"/>
      <point x="377.0" y="85.0"/>
      <point x="385.2546498791252" y="64.5453501208748"/>
      <point x="411.8" y="38.0" type="curve"/>
      <point x="434.6" y="15.2"/>
      <point x="501.4" y="20.4"/>
      <point x="506.6" y="46.0" type="curve"/>
      <point x="494.2" y="63.4"/>
      <point x="490.0" y="82.0"/>
      <point x="490.0" y="112.0" type="curve" smooth="yes"/>
      <point x="490.0" y="198.86666666666667"/>
      <point x="490.0" y="250.25185185185185"/>
      <point x="490.0" y="364.4" type="curve" smooth="yes"/>
      <point x="490.0" y="415.3037037037037"/>
      <point x="468.4256133540909" y="462.5743866459091"/>
      <point x="422.4" y="510.4" type="curve"/>
      <point x="408.16981231139584" y="525.2301876886041"/>
      <point x="382.4" y="520.6"/>
    </contour>
    <contour>
      <point x="416.4" y="268.6" type="curve" smooth="yes"/>
      <point x="395.17917977557806" y="289.82082022442194"/>
      <point x="330.47755102040816" y="302.0"/>
      <point x="236.0" y="302.0" type="curve" smooth="yes"/>
      <point x="178.32380952380953" y="302.0"/>
      <point x="146.90318668792847" y="291.1031866879285"/>
      <point x="115.4" y="259.6" type="curve" smooth="yes"/>
      <point x="95.2" y="239.4"/>
      <point x="89.4" y="207.8"/>
      <point x="101.6" y="193.0" type="curve"/>
      <point x="135.46401454290432" y="219.7900090893152"/>
      <point x="170.28387096774193" y="225.0"/>
      <point x="219.0" y="225.0" type="curve" smooth="yes"/>
      <point x="285.76756756756754" y="225.0"/>
      <point x="379.3820783746235" y="224.1812392286575"/>
      <point x="435.6" y="218.6" type="curve"/>
      <point x="434.8" y="239.0"/>
      <point x="427.3045117063694" y="257.6954882936306"/>
    </contour>
    <contour>
      <point x="170.0" y="138.0" type="curve" smooth="yes"/>
      <point x="170.0" y="178.4" type="line" smooth="yes"/>
      <point x="170.0" y="239.8"/>
      <point x="175.4" y="255.4"/>
      <point x="200.4" y="280.2" type="curve"/>
      <point x="168.8" y="289.6"/>
      <point x="135.0" y="279.2"/>
      <point x="115.4" y="259.6" type="curve" smooth="yes"/>
      <point x="71.6" y="215.8"/>
      <point x="60.0" y="193.8"/>
      <point x="60.0" y="156.0" type="curve" smooth="yes"/>
      <point x="60.0" y="122.0" type="line" smooth="yes"/>
      <point x="60.0" y="28.2"/>
      <point x="106.0" y="-20.0"/>
      <point x="190.6" y="-20.0" type="curve" smooth="yes"/>
      <point x="278.6" y="-20.0"/>
      <point x="346.8" y="25.2"/>
      <point x="391.0" y="99.0" type="curve" smooth="yes"/>
      <point x="401.0" y="115.0"/>
      <point x="405.0" y="130.0"/>
      <point x="405.0" y="158.4" type="curve"/>
      <point x="348.2" y="102.8"/>
      <point x="297.6" y="84.4"/>
      <point x="238.0" y="84.4" type="curve" smooth="yes"/>
      <point x="216.0" y="84.4" type="line" smooth="yes"/>
      <point x="183.0" y="84.4"/>
      <point x="170.0" y="98.4"/>
    </contour>
    <contour>
      <point x="507.2" y="-10.0" type="curve" smooth="yes"/>
      <point x="548.8903225806451" y="-10.0"/>
      <point x="567.0" y="6.0"/>
      <point x="567.0" y="42.6" type="curve"/>
      <point x="567.0" y="110.0" type="line"/>
      <point x="548.0" y="110.0" type="line"/>
      <point x="534.7589399589169" y="108.69505844889753"/>
      <point x="525.8489795918367" y="106.0"/>
      <point x="508.4" y="106.0" type="curve" smooth="yes"/>
      <point x="482.7913043478261" y="106.0"/>
      <point x="454.19641826649774" y="107.30179086675113"/>
      <point x="418.8" y="111.19999999999999" type="curve"/>
      <point x="402.6" y="95.0"/>
      <point x="396.8" y="53.0"/>
      <point x="411.8" y="38.0" type="curve"/>
      <point x="438.5486565610421" y="11.619104621889498"/>
      <point x="473.9" y="-10.0"/>
    </contour>
  </outline>
</glyph>
<glyph name="b" format="2">
  <advance width="600.0"/>
  <unicode hex="0062"/>
  <outline>
    <contour>
      <point x="195.0" y="-10.0" type="line"/>
      <point x="195.0" y="218.8"/>
      <point x="195.0" y="521.0"/>
      <point x="195.0" y="719.8" type="curve" smooth="yes"/>
      <point x="195.0" y="726.6"/>
      <point x="193.0" y="730.0"/>
      <point x="188.2" y="734.8" type="curve" smooth="yes"/>
      <point x="176.6" y="746.4"/>
      <point x="133.2" y="756.0"/>
      <point x="98.0" y="756.0" type="curve" smooth="yes"/>
      <point x="79.0" y="756.0" type="line"/>
      <point x="79.0" y="615.8"/>
      <point x="79.0" y="524.2"/>
      <point x="79.0" y="384.0" type="curve" smooth="yes"/>
      <point x="79.0" y="294.0"/>
      <point x="79.0" y="122.19999999999999"/>
      <point x="79.0" y="32.2" type="curve" smooth="yes"/>
      <point x="79.0" y="25.4"/>
      <point x="81.0" y="22.0"/>
      <point x="85.8" y="17.2" type="curve" smooth="yes"/>
      <point x="104.6" y="-1.6000000000000005"/>
      <point x="140.8" y="-10.0"/>
      <point x="176.0" y="-10.0" type="curve" smooth="yes"/>
    </contour>
    <contour>
      <point x="389.4" y="544.0" type="curve" smooth="yes"/>
      <point x="319.6393459376597" y="544.0"/>
      <point x="236.66207563264896" y="485.52572664874214"/>
      <point x="183.0" y="418.0" type="curve" smooth="yes"/>
      <point x="159.2" y="388.6"/>
      <point x="153.4" y="371.4"/>
      <point x="154.2" y="322.4" type="curve"/>
      <point x="246.32508952248173" y="405.2197004723424"/>
      <point x="306.4568522041188" y="428.0"/>
      <point x="383.0" y="428.0" type="curve" smooth="yes"/>
      <point x="439.0" y="428.0"/>
      <point x="475.0" y="384.2"/>
      <point x="500.6" y="317.6" type="curve"/>
      <point x="534.0" y="319.2"/>
      <point x="550.0" y="339.8"/>
      <point x="550.0" y="356.4" type="curve" smooth="yes"/>
      <point x="550.0" y="455.4"/>
      <point x="466.0" y="544.0"/>
    </contour>
    <contour>
      <point x="332.8" y="-20.0" type="curve" smooth="yes"/>
      <point x="473.8888990825688" y="-20.0"/>
      <point x="550.0" y="124.19999999999999"/>
      <point x="550.0" y="318.0" type="curve" smooth="yes"/>
      <point x="550.0" y="356.4" type="line" smooth="yes"/>
      <point x="550.0" y="402.2"/>
      <point x="510.8" y="470.2"/>
      <point x="462.4" y="470.2" type="curve"/>
      <point x="429.4" y="470.2"/>
      <point x="404.6" y="462.0"/>
      <point x="403.8" y="439.4" type="curve"/>
      <point x="421.4" y="412.6"/>
      <point x="431.0" y="388.8"/>
      <point x="431.0" y="340.4" type="curve" smooth="yes"/>
      <point x="431.0" y="318.0" type="line" smooth="yes"/>
      <point x="431.0" y="173.6"/>
      <point x="374.2927166400851" y="87.0"/>
      <point x="286.6" y="87.0" type="curve" smooth="yes"/>
      <point x="244.0" y="87.0"/>
      <point x="214.54012738853504" y="97.79999999999998"/>
      <point x="182.0" y="122.2" type="curve"/>
      <point x="177.2" y="119.8"/>
      <point x="175.4" y="116.0"/>
      <point x="175.4" y="108.8" type="curve"/>
      <point x="175.4" y="63.2"/>
      <point x="252.8" y="-20.0"/>
    </contour>
  </outline>
</glyph>
<glyph name="c" format="2">
  <advance width="600.0"/>
  <unicode hex="0063"/>
  <outline>
    <contour>
      <point x="359.8" y="550.0" type="curve" smooth="yes"/>
      <point x="192.44730538922155" y="550.0"/>
      <point x="60.0" y="423.2"/>
      <point x="60.0" y="249.0" type="curve" smooth="yes"/>
      <point x="60.0" y="219.0" type="line" smooth="yes"/>
      <point x="60.0" y="156.6"/>
      <point x="81.77584196382575" y="97.22415803617425"/>
      <point x="128.0" y="51.0" type="curve" smooth="yes"/>
      <point x="150.6" y="28.4"/>
      <point x="204.0" y="15.2"/>
      <point x="226.2" y="38.2" type="curve"/>
      <point x="200.2277339457746" y="79.01151268073747"/>
      <point x="169.2" y="145.04923076923075"/>
      <point x="169.2" y="206.0" type="curve" smooth="yes"/>
      <point x="169.2" y="238.8" type="line" smooth="yes"/>
      <point x="169.2" y="344.4"/>
      <point x="239.8857142857143" y="440.0"/>
      <point x="354.4" y="440.0" type="curve" smooth="yes"/>
      <point x="403.4631578947368" y="440.0"/>
      <point x="448.2" y="428.8"/>
      <point x="479.8" y="415.6" type="curve"/>
      <point x="505.2" y="429.0"/>
      <point x="520.2" y="457.6"/>
      <point x="483.4" y="494.4" type="curve"/>
      <point x="438.8" y="539.0"/>
      <point x="416.6" y="550.0"/>
    </contour>
    <contour>
      <point x="123.0" y="140.6" type="curve"/>
      <point x="101.6" y="120.0"/>
      <point x="100.0" y="79.0"/>
      <point x="128.0" y="51.0" type="curve" smooth="yes"/>
      <point x="173.11787100830645" y="5.478854797018371"/>
      <point x="210.43259259259258" y="-20.0"/>
      <point x="280.0" y="-20.0" type="curve" smooth="yes"/>
      <point x="324.4" y="-20.0" type="line" smooth="yes"/>
      <point x="421.8" y="-20.0"/>
      <point x="481.0" y="2.0"/>
      <point x="509.6" y="30.6" type="curve" smooth="yes"/>
      <point x="520.8" y="41.8"/>
      <point x="524.2" y="52.4"/>
      <point x="524.2" y="68.4" type="curve" smooth="yes"/>
      <point x="524.2" y="95.2"/>
      <point x="524.2" y="121.2"/>
      <point x="524.2" y="145.0" type="curve"/>
      <point x="505.2" y="145.0" type="line"/>
      <point x="464.2" y="102.8"/>
      <point x="398.4" y="90.0"/>
      <point x="300.0" y="90.0" type="curve" smooth="yes"/>
      <point x="222.0934108527132" y="90.0"/>
      <point x="169.41972869647202" y="102.7798229240627"/>
    </contour>
    <contour>
      <point x="525.0" y="296.0" type="line"/>
      <point x="525.0" y="407.8" type="line" smooth="yes"/>
      <point x="525.0" y="440.2"/>
      <point x="513.8" y="464.0"/>
      <point x="483.4" y="494.4" type="curve" smooth="yes"/>
      <point x="454.6" y="523.2"/>
      <point x="414.0" y="520.6"/>
      <point x="391.6" y="497.8" type="curve"/>
      <point x="405.4" y="483.0"/>
      <point x="415.0" y="444.2"/>
      <point x="415.0" y="415.0" type="curve" smooth="yes"/>
      <point x="415.0" y="338.2" type="line" smooth="yes"/>
      <point x="415.0" y="332.0"/>
      <point x="416.4" y="328.6"/>
      <point x="421.8" y="323.2" type="curve" smooth="yes"/>
      <point x="440.0" y="305.0"/>
      <point x="469.0" y="296.0"/>
      <point x="506.0" y="296.0" type="curve" smooth="yes"/>
    </contour>
  </outline>
</glyph>
<glyph name="d" format="2">
  <advance width="600.0"/>
  <unicode hex="0064"/>
  <outline>
    <contour>
      <point x="274.0" y="550.0" type="curve" smooth="yes"/>
      <point x="151.69555555555556" y="550.0"/>
      <point x="54.0" y="438.8"/>
      <point x="54.0" y="226.0" type="curve" smooth="yes"/>
      <point x="54.0" y="185.6" type="line" smooth="yes"/>
      <point x="54.0" y="138.8"/>
      <point x="92.8" y="69.2"/>
      <point x="153.0" y="69.2" type="curve"/>
      <point x="174.6" y="69.2"/>
      <point x="191.0" y="76.2"/>
      <point x="191.8" y="95.8" type="curve"/>
      <point x="178.8" y="118.8"/>
      <point x="173.0" y="152.6"/>
      <point x="173.0" y="213.6" type="curve" smooth="yes"/>
      <point x="173.0" y="230.0" type="line" smooth="yes"/>
      <point x="173.0" y="367.6"/>
      <point x="215.94857142857143" y="449.0"/>
      <point x="307.0" y="449.0" type="curve" smooth="yes"/>
      <point x="356.0" y="449.0"/>
      <point x="385.4" y="438.6"/>
      <point x="422.0" y="425.8" type="curve"/>
      <point x="431.0" y="428.8"/>
      <point x="431.6" y="449.4"/>
      <point x="424.4" y="462.0" type="curve"/>
      <point x="407.0" y="501.2"/>
      <point x="343.4" y="550.0"/>
    </contour>
    <contour>
      <point x="521.0" y="-10.0" type="line"/>
      <point x="521.0" y="219.6"/>
      <point x="521.0" y="524.2"/>
      <point x="521.0" y="723.8" type="curve" smooth="yes"/>
      <point x="521.0" y="730.6"/>
      <point x="519.0" y="734.0"/>
      <point x="514.2" y="738.8" type="curve" smooth="yes"/>
      <point x="502.6" y="750.4"/>
      <point x="459.2" y="760.0"/>
      <point x="424.0" y="760.0" type="curve" smooth="yes"/>
      <point x="405.0" y="760.0" type="line"/>
      <point x="405.0" y="630.6"/>
      <point x="405.0" y="549.4"/>
      <point x="405.0" y="420.0" type="curve" smooth="yes"/>
      <point x="405.0" y="318.0"/>
      <point x="405.0" y="134.2"/>
      <point x="405.0" y="32.2" type="curve" smooth="yes"/>
      <point x="405.0" y="25.4"/>
      <point x="407.0" y="22.0"/>
      <point x="411.8" y="17.2" type="curve" smooth="yes"/>
      <point x="430.6" y="-1.6000000000000005"/>
      <point x="466.8" y="-10.0"/>
      <point x="502.0" y="-10.0" type="curve" smooth="yes"/>
    </contour>
    <contour>
      <point x="210.6" y="-14.0" type="curve" smooth="yes"/>
      <point x="277.2027593254982" y="-14.0"/>
      <point x="367.60873207124484" y="50.58155888993889"/>
      <point x="417.0" y="112.0" type="curve" smooth="yes"/>
      <point x="441.4" y="141.4"/>
      <point x="446.6" y="158.6"/>
      <point x="445.8" y="207.6" type="curve"/>
      <point x="353.67491047751827" y="124.78029952765758"/>
      <point x="293.5431477958812" y="102.0"/>
      <point x="217.0" y="102.0" type="curve" smooth="yes"/>
      <point x="155.8" y="102.0"/>
      <point x="131.8" y="160.0"/>
      <point x="98.0" y="234.0" type="curve"/>
      <point x="66.6" y="232.4"/>
      <point x="54.0" y="207.0"/>
      <point x="54.0" y="185.6" type="curve" smooth="yes"/>
      <point x="54.0" y="82.2"/>
      <point x="122.0" y="-14.0"/>
    </contour>
  </outline>
</glyph>
<glyph name="e" format="2">
  <advance width="600.0"/>
  <unicode hex="0065"/>
  <outline>
    <contour>
      <point x="355.4" y="550.0" type="curve"/>
      <point x="180.8" y="550.0"/>
      <point x="60.0" y="452.40408163265306"/>
      <point x="60.0" y="273.0" type="curve" smooth="yes"/>
      <point x="60.0" y="213.0" type="line"/>
      <point x="60.0" y="144.41538461538462"/>
      <point x="86.42481835264498" y="93.37518164735502"/>
      <point x="126.4" y="53.4" type="curve"/>
      <point x="149.21241572929057" y="30.58758427070945"/>
      <point x="188.7817628187325" y="25.304483171074033"/>
      <point x="220.2" y="44.6" type="curve"/>
      <point x="188.0" y="101.0"/>
      <point x="169.2" y="149.4"/>
      <point x="169.2" y="206.6" type="curve" smooth="yes"/>
      <point x="169.2" y="263.4" type="line" smooth="yes"/>
      <point x="169.2" y="390.42051282051284"/>
      <point x="238.2" y="440.0"/>
      <point x="343.4" y="440.0" type="curve" smooth="yes"/>
      <point x="397.80285714285714" y="440.0"/>
      <point x="434.7901575375423" y="431.49553788987595"/>
      <point x="460.8" y="402.0" type="curve"/>
      <point x="483.8" y="402.0"/>
      <point x="495.8" y="420.0"/>
      <point x="495.8" y="438.2" type="curve"/>
      <point x="495.8" y="501.7977011494253"/>
      <point x="419.2641509433962" y="550.0"/>
    </contour>
    <contour>
      <point x="354.4" y="215.0" type="line" smooth="yes"/>
      <point x="486.21311475409834" y="215.0"/>
      <point x="540.0" y="292.2551724137931"/>
      <point x="540.0" y="364.0" type="curve" smooth="yes"/>
      <point x="540.0" y="397.6" type="line" smooth="yes"/>
      <point x="540.0" y="463.0"/>
      <point x="456.4" y="550.0"/>
      <point x="367.0" y="550.0" type="curve" smooth="yes"/>
      <point x="355.4" y="550.0" type="line" smooth="yes"/>
      <point x="318.0" y="550.0"/>
      <point x="292.6" y="523.0"/>
      <point x="292.6" y="484.0" type="curve"/>
      <point x="372.6" y="484.0"/>
      <point x="430.0" y="457.407476635514"/>
      <point x="430.0" y="397.8" type="curve" smooth="yes"/>
      <point x="430.0" y="360.8" type="line" smooth="yes"/>
      <point x="430.0" y="314.30980392156863"/>
      <point x="403.16618357487926" y="295.0"/>
      <point x="348.6" y="295.0" type="curve" smooth="yes"/>
      <point x="263.5349112426035" y="295.0"/>
      <point x="221.9396449704142" y="295.0"/>
      <point x="156.6" y="295.0" type="curve"/>
      <point x="154.8" y="290.0"/>
      <point x="154.6" y="285.0"/>
      <point x="155.8" y="279.8" type="curve"/>
      <point x="161.0" y="252.6"/>
      <point x="217.4" y="215.0"/>
      <point x="279.2" y="215.0" type="curve" smooth="yes"/>
    </contour>
    <contour>
      <point x="112.6" y="165.0" type="curve"/>
      <point x="84.8" y="137.2"/>
      <point x="95.6" y="84.2"/>
      <point x="126.4" y="53.4" type="curve"/>
      <point x="173.4" y="6.0"/>
      <point x="216.8" y="-20.0"/>
      <point x="289.6" y="-20.0" type="curve" smooth="yes"/>
      <point x="322.4" y="-20.0" type="line" smooth="yes"/>
      <point x="417.8" y="-20.0"/>
      <point x="484.2" y="4.0"/>
      <point x="509.6" y="31.8" type="curve" smooth="yes"/>
      <point x="520.4" y="43.4"/>
      <point x="524.2" y="54.4"/>
      <point x="524.2" y="70.4" type="curve"/>
      <point x="524.2" y="93.2"/>
      <point x="524.2" y="125.2"/>
      <point x="524.2" y="145.0" type="curve"/>
      <point x="505.2" y="145.0" type="line"/>
      <point x="464.2" y="102.8"/>
      <point x="398.4" y="90.0"/>
      <point x="300.0" y="90.0" type="curve" smooth="yes"/>
      <point x="218.2" y="90.0"/>
      <point x="159.0" y="108.8"/>
    </contour>
  </outline>
</glyph>
<glyph name="f" format="2">
  <advance width="600.0"/>
  <unicode hex="0066"/>
  <outline>
    <contour>
      <point x="247.4" y="622.8" type="curve"/>
      <point x="290.6981240299668" y="654.493881136476"/>
      <point x="337.1802197802198" y="664.0"/>
      <point x="400.0" y="664.0" type="curve" smooth="yes"/>
      <point x="461.6" y="664.0"/>
      <point x="515.0" y="650.2"/>
      <point x="546.0" y="635.0" type="curve"/>
      <point x="565.0" y="635.0" type="line"/>
      <point x="565.0" y="656.4" type="line"/>
      <point x="565.0" y="692.3030768212798"/>
      <point x="556.0414960793298" y="721.7502047048042"/>
      <point x="545.0" y="734.6" type="curve" smooth="yes"/>
      <point x="531.8118102742935" y="749.6522318869745"/>
      <point x="479.91948051948054" y="765.0"/>
      <point x="432.0" y="765.0" type="curve"/>
      <point x="416.0" y="765.0" type="line"/>
      <point x="346.6237961926092" y="765.0"/>
      <point x="294.6353449097911" y="758.2353449097911"/>
      <point x="241.8" y="705.4" type="curve" smooth="yes"/>
      <point x="220.2479297864217" y="683.8479297864217"/>
      <point x="219.55546080427234" y="643.9465167008561"/>
    </contour>
    <contour>
      <point x="295.0" y="-10.0" type="line"/>
      <point x="295.0" y="180.13915343915343"/>
      <point x="295.0" y="328.6230599647266"/>
      <point x="295.0" y="500.0" type="curve" smooth="yes"/>
      <point x="285.670485018251" y="586.7151961633078"/>
      <point x="278.8" y="648.7542372881356"/>
      <point x="302.0" y="715.6" type="curve"/>
      <point x="281.6570995596325" y="726.6434038831127"/>
      <point x="258.7551134701028" y="722.3551134701028"/>
      <point x="241.8" y="705.4" type="curve" smooth="yes"/>
      <point x="201.2" y="664.8"/>
      <point x="185.0" y="630.8631578947369"/>
      <point x="185.0" y="573.8" type="curve"/>
      <point x="185.0" y="429.63366336633663"/>
      <point x="185.0" y="230.9168316831683"/>
      <point x="185.0" y="32.2" type="curve"/>
      <point x="185.0" y="25.4"/>
      <point x="187.0" y="22.0"/>
      <point x="191.8" y="17.2" type="curve" smooth="yes"/>
      <point x="210.6" y="-1.6000000000000005"/>
      <point x="240.8" y="-10.0"/>
      <point x="276.0" y="-10.0" type="curve" smooth="yes"/>
    </contour>
    <contour>
      <point x="35.0" y="480.0" type="curve"/>
      <point x="35.0" y="461.0" type="line" smooth="yes"/>
      <point x="35.0" y="424.0"/>
      <point x="44.0" y="395.0"/>
      <point x="62.2" y="376.8" type="curve" smooth="yes"/>
      <point x="67.6" y="371.4"/>
      <point x="71.0" y="370.0"/>
      <point x="77.2" y="370.0" type="curve"/>
      <point x="133.04827586206895" y="370.0"/>
      <point x="200.15172413793104" y="370.0"/>
      <point x="256.0" y="370.0" type="curve"/>
      <point x="309.0769230769231" y="370.0"/>
      <point x="485.00000000000006" y="370.0"/>
      <point x="530.0" y="370.0" type="curve"/>
      <point x="530.0" y="389.0" type="line" smooth="yes"/>
      <point x="530.0" y="426.6"/>
      <point x="521.0" y="455.0"/>
      <point x="502.8" y="473.2" type="curve" smooth="yes"/>
      <point x="497.4" y="478.6"/>
      <point x="494.0" y="480.0"/>
      <point x="487.8" y="480.0" type="curve" smooth="yes"/>
      <point x="389.3775280898876" y="480.0"/>
      <point x="134.0561797752809" y="480.0"/>
    </contour>
  </outline>
</glyph>
<glyph name="g" format="2">
  <advance width="600.0"/>
  <unicode hex="0067"/>
  <outline>
    <contour>
      <point x="319.0" y="453.0" type="curve" smooth="yes"/>
      <point x="370.6143648062248" y="453.0"/>
      <point x="417.7750275707639" y="442.26246783410886"/>
      <point x="448.0" y="424.0" type="curve"/>
      <point x="476.0" y="463.4"/>
      <point x="476.0" y="497.0"/>
      <point x="458.8" y="514.2" type="curve" smooth="yes"/>
      <point x="434.03179481204404" y="538.968205187956"/>
      <point x="368.38362573099414" y="550.0"/>
      <point x="311.0" y="550.0" type="curve" smooth="yes"/>
      <point x="175.0" y="550.0"/>
      <point x="68.0" y="473.97777777777776"/>
      <point x="68.0" y="356.0" type="curve" smooth="yes"/>
      <point x="68.0" y="329.0" type="line" smooth="yes"/>
      <point x="68.0" y="283.7431097443783"/>
      <point x="85.69886847189089" y="247.5011315281091"/>
      <point x="127.4" y="205.8" type="curve" smooth="yes"/>
      <point x="139.6" y="193.6"/>
      <point x="200.2" y="190.0"/>
      <point x="209.6" y="201.6" type="curve"/>
      <point x="185.01020209678236" y="238.35621084873642"/>
      <point x="172.0" y="263.23721131462264"/>
      <point x="172.0" y="313.8" type="curve" smooth="yes"/>
      <point x="172.0" y="333.4" type="line" smooth="yes"/>
      <point x="172.0" y="419.90718954248365"/>
      <point x="223.07107438016527" y="453.0"/>
    </contour>
    <contour>
      <point x="297.0" y="249.0" type="curve" smooth="yes"/>
      <point x="234.0" y="249.0"/>
      <point x="169.0" y="254.8"/>
      <point x="120.4" y="281.4" type="curve"/>
      <point x="108.6" y="255.0"/>
      <point x="107.0" y="226.8"/>
      <point x="127.4" y="205.8" type="curve" smooth="yes"/>
      <point x="177.0" y="156.2"/>
      <point x="232.4" y="151.0"/>
      <point x="309.0" y="151.0" type="curve" smooth="yes"/>
      <point x="444.0" y="151.0"/>
      <point x="532.0" y="232.79"/>
      <point x="532.0" y="344.0" type="curve" smooth="yes"/>
      <point x="532.0" y="371.0" type="line" smooth="yes"/>
      <point x="532.0" y="418.46646795827127"/>
      <point x="519.6980234723491" y="453.30197652765094"/>
      <point x="458.8" y="514.2" type="curve" smooth="yes"/>
      <point x="440.8" y="532.2"/>
      <point x="392.6" y="526.2"/>
      <point x="371.6" y="506.8" type="curve"/>
      <point x="410.5133460324812" y="474.9618077916063"/>
      <point x="428.0" y="441.6880444856348"/>
      <point x="428.0" y="379.0" type="curve" smooth="yes"/>
      <point x="428.0" y="358.4" type="line" smooth="yes"/>
      <point x="428.0" y="290.4795035460993"/>
      <point x="376.8" y="249.0"/>
    </contour>
    <contour>
      <point x="170.0" y="57.8" type="curve" smooth="yes"/>
      <point x="170.0" y="44.8" type="line" smooth="yes"/>
      <point x="170.0" y="-12.333333333333336"/>
      <point x="217.8" y="-46.0"/>
      <point x="296.0" y="-46.0" type="curve" smooth="yes"/>
      <point x="417.0" y="-46.0" type="line" smooth="yes"/>
      <point x="440.5407407407407" y="-46.0"/>
      <point x="456.2" y="-65.03636363636363"/>
      <point x="456.2" y="-90.2" type="curve" smooth="yes"/>
      <point x="456.2" y="-122.4" type="line" smooth="yes"/>
      <point x="456.2" y="-156.8"/>
      <point x="453.4" y="-176.0"/>
      <point x="443.4" y="-202.0" type="curve"/>
      <point x="459.8" y="-205.2"/>
      <point x="504.8" y="-197.0"/>
      <point x="516.4" y="-185.4" type="curve" smooth="yes"/>
      <point x="551.6" y="-150.2"/>
      <point x="565.0" y="-123.4"/>
      <point x="565.0" y="-80.0" type="curve" smooth="yes"/>
      <point x="565.0" y="-66.0" type="line" smooth="yes"/>
      <point x="565.0" y="2.555604589585169"/>
      <point x="510.08263214670984" y="55.0"/>
      <point x="439.0" y="55.0" type="curve" smooth="yes"/>
      <point x="298.2" y="55.0" type="line" smooth="yes"/>
      <point x="279.6" y="55.0"/>
      <point x="274.0" y="60.599999999999994"/>
      <point x="274.0" y="79.2" type="curve" smooth="yes"/>
      <point x="274.0" y="107.2" type="line" smooth="yes"/>
      <point x="274.0" y="127.98260869565217"/>
      <point x="280.44355616265824" y="154.32276590428975"/>
      <point x="288.0" y="169.8" type="curve"/>
      <point x="288.0" y="176.2"/>
      <point x="286.4" y="181.2"/>
      <point x="282.0" y="184.8" type="curve" smooth="yes"/>
      <point x="243.35999999999999" y="184.8"/>
      <point x="170.0" y="112.13049385941991"/>
    </contour>
    <contour>
      <point x="537.0" y="-112.80000000000001" type="curve"/>
      <point x="461.0" y="-165.2"/>
      <point x="410.8" y="-170.0"/>
      <point x="331.8" y="-170.0" type="curve"/>
      <point x="250.0" y="-170.0" type="line"/>
      <point x="177.67238723872387" y="-170.0"/>
      <point x="144.2" y="-150.76470588235293"/>
      <point x="144.2" y="-107.0" type="curve" smooth="yes"/>
      <point x="144.2" y="-82.0" type="line" smooth="yes"/>
      <point x="144.2" y="-52.679611650485434"/>
      <point x="166.4" y="-24.2"/>
      <point x="225.4" y="-1.3999999999999986" type="curve"/>
      <point x="225.4" y="12.266666666666666"/>
      <point x="215.7" y="23.6"/>
      <point x="202.8" y="23.6" type="curve"/>
      <point x="101.69295774647887" y="23.6"/>
      <point x="35.4" y="-32.26315789473684"/>
      <point x="35.4" y="-109.4" type="curve" smooth="yes"/>
      <point x="35.4" y="-125.0" type="line" smooth="yes"/>
      <point x="35.4" y="-196.2"/>
      <point x="114.22902107228595" y="-250.0"/>
      <point x="225.0" y="-250.0" type="curve"/>
      <point x="284.0" y="-250.0" type="line"/>
      <point x="386.8" y="-250.0"/>
      <point x="467.8" y="-234.0"/>
      <point x="516.4" y="-185.4" type="curve"/>
      <point x="541.6" y="-160.2"/>
      <point x="550.8" y="-126.6"/>
    </contour>
    <contour>
      <point x="448.8" y="493.8" type="curve" smooth="yes"/>
      <point x="524.4" y="556.4" type="line" smooth="yes"/>
      <point x="550.8" y="578.6"/>
      <point x="565.0" y="594.2"/>
      <point x="565.0" y="622.6" type="curve" smooth="yes"/>
      <point x="565.0" y="627.4"/>
      <point x="565.0" y="636.2"/>
      <point x="565.0" y="642.8" type="curve" smooth="yes"/>
      <point x="565.0" y="649.6"/>
      <point x="563.0" y="653.0"/>
      <point x="558.2" y="657.8" type="curve" smooth="yes"/>
      <point x="539.4" y="676.6"/>
      <point x="503.6" y="685.0"/>
      <point x="468.0" y="685.0" type="curve" smooth="yes"/>
      <point x="455.0" y="685.0" type="line"/>
      <point x="455.0" y="676.0"/>
      <point x="455.0" y="663.6"/>
      <point x="455.0" y="654.6" type="curve" smooth="yes"/>
      <point x="455.0" y="635.2"/>
      <point x="451.0" y="622.8"/>
      <point x="445.2" y="605.8" type="curve" smooth="yes"/>
      <point x="409.8" y="501.0" type="line"/>
      <point x="419.5897065500172" y="491.3652305678436"/>
      <point x="438.8" y="486.2"/>
    </contour>
  </outline>
</glyph>
<glyph name="h" format="2">
  <advance width="600.0"/>
  <unicode hex="0068"/>
  <outline>
    <contour>
      <point x="195.0" y="-10.0" type="line"/>
      <point x="195.0" y="160.77254901960782"/>
      <point x="195.0" y="579.0274509803921"/>
      <point x="195.0" y="719.8" type="curve" smooth="yes"/>
      <point x="195.0" y="726.6"/>
      <point x="193.0" y="730.0"/>
      <point x="188.2" y="734.8" type="curve" smooth="yes"/>
      <point x="176.6" y="746.4"/>
      <point x="133.2" y="756.0"/>
      <point x="98.0" y="756.0" type="curve" smooth="yes"/>
      <point x="79.0" y="756.0" type="line"/>
      <point x="79.0" y="641.41"/>
      <point x="79.0" y="308.59000000000003"/>
      <point x="79.0" y="194.0" type="curve" smooth="yes"/>
      <point x="79.0" y="140.6"/>
      <point x="79.0" y="85.6"/>
      <point x="79.0" y="32.2" type="curve" smooth="yes"/>
      <point x="79.0" y="25.4"/>
      <point x="81.0" y="22.0"/>
      <point x="85.8" y="17.2" type="curve" smooth="yes"/>
      <point x="104.6" y="-1.6000000000000005"/>
      <point x="140.8" y="-10.0"/>
      <point x="176.0" y="-10.0" type="curve" smooth="yes"/>
    </contour>
    <contour>
      <point x="387.4" y="544.0" type="curve" smooth="yes"/>
      <point x="320.8" y="544.0"/>
      <point x="232.2" y="479.0"/>
      <point x="183.0" y="418.0" type="curve" smooth="yes"/>
      <point x="158.6" y="388.6"/>
      <point x="153.4" y="371.4"/>
      <point x="154.2" y="322.4" type="curve"/>
      <point x="251.6" y="422.8"/>
      <point x="305.0" y="434.0"/>
      <point x="381.0" y="434.0" type="curve" smooth="yes"/>
      <point x="421.4" y="434.0"/>
      <point x="455.4" y="416.6"/>
      <point x="482.6" y="378.8" type="curve"/>
      <point x="508.0" y="381.2"/>
      <point x="521.0" y="397.0"/>
      <point x="521.0" y="414.0" type="curve" smooth="yes"/>
      <point x="521.0" y="465.4"/>
      <point x="450.4" y="544.0"/>
    </contour>
    <contour>
      <point x="521.0" y="-10.0" type="line"/>
      <point x="521.0" y="141.5251798561151"/>
      <point x="521.0" y="262.47482014388487"/>
      <point x="521.0" y="414.0" type="curve" smooth="yes"/>
      <point x="521.0" y="420.8"/>
      <point x="519.0" y="424.2"/>
      <point x="514.2" y="429.0" type="curve" smooth="yes"/>
      <point x="495.4" y="447.8"/>
      <point x="459.2" y="456.2"/>
      <point x="424.0" y="456.2" type="curve" smooth="yes"/>
      <point x="405.0" y="456.2" type="line"/>
      <point x="405.0" y="359.6"/>
      <point x="405.0" y="291.2"/>
      <point x="405.0" y="194.0" type="curve" smooth="yes"/>
      <point x="405.0" y="140.46666666666667"/>
      <point x="405.0" y="85.73333333333333"/>
      <point x="405.0" y="32.2" type="curve" smooth="yes"/>
      <point x="405.0" y="25.4"/>
      <point x="407.0" y="22.0"/>
      <point x="411.8" y="17.2" type="curve" smooth="yes"/>
      <point x="430.6" y="-1.6000000000000005"/>
      <point x="466.8" y="-10.0"/>
      <point x="502.0" y="-10.0" type="curve" smooth="yes"/>
    </contour>
  </outline>
</glyph>
<glyph name="i" format="2">
  <advance width="300.0"/>
  <unicode hex="0069"/>
  <guideline y="0.0" identifier="MeGjFnIIV6"/>
  <guideline x="0.0" identifier="GOd0KuzhgB"/>
  <guideline x="50.0" identifier="HsBTfQ86Ci"/>
  <guideline x="100.0" identifier="M24McFw3p1"/>
  <guideline x="150.0" identifier="AwXYpQzJ6m"/>
  <guideline x="200.0" identifier="tJyAZbCWVJ"/>
  <guideline x="250.0" identifier="SvMhguasMP"/>
  <guideline x="300.0" identifier="g4qbs6NHyr"/>
  <guideline y="-250.0" identifier="XPlBunQhqZ"/>
  <guideline y="-200.0" identifier="hFmHw4nHPS"/>
  <guideline y="-150.0" identifier="D9WtuVs5Ex"/>
  <guideline y="-100.0" identifier="7CcwqiBYAT"/>
  <guideline y="-50.0" identifier="FPIORwy7au"/>
  <guideline y="50.0" identifier="AeyNZ77NMX"/>
  <guideline y="100.0" identifier="8bdITXBMYI"/>
  <guideline y="150.0" identifier="c9M6davzUK"/>
  <guideline y="200.0" identifier="GscesOtgzc"/>
  <guideline y="250.0" identifier="ApKPpEtVzB"/>
  <guideline y="300.0" identifier="lAKBXnpEtB"/>
  <guideline y="350.0" identifier="eokXWTDSu3"/>
  <guideline y="400.0" identifier="szPlmhI2TQ"/>
  <guideline y="450.0" identifier="8uReE326Cl"/>
  <guideline y="500.0" identifier="of8Z8N4gii"/>
  <guideline y="550.0" identifier="eZZMPFek6p"/>
  <guideline y="600.0" identifier="WnMEL2Kc2z"/>
  <guideline y="650.0" identifier="ESrDj4cdhh"/>
  <guideline y="700.0" identifier="MNZ7BO71IH"/>
  <outline>
    <contour>
      <point x="220.0" y="617.0" type="line"/>
      <point x="220.0" y="644.4"/>
      <point x="220.0" y="683.0"/>
      <point x="220.0" y="710.4" type="curve" smooth="yes"/>
      <point x="220.0" y="718.0"/>
      <point x="218.4" y="721.0"/>
      <point x="212.0" y="727.4" type="curve" smooth="yes"/>
      <point x="194.4" y="745.0"/>
      <point x="172.4" y="751.4"/>
      <point x="140.4" y="751.4" type="curve"/>
      <point x="80.0" y="751.4" type="line"/>
      <point x="80.0" y="723.6"/>
      <point x="80.0" y="686.4"/>
      <point x="80.0" y="658.0" type="curve" smooth="yes"/>
      <point x="80.0" y="650.4"/>
      <point x="81.6" y="647.4"/>
      <point x="88.0" y="641.0" type="curve" smooth="yes"/>
      <point x="105.0" y="624.0"/>
      <point x="128.0" y="617.0"/>
      <point x="159.6" y="617.0" type="curve"/>
    </contour>
    <contour>
      <point x="208.0" y="-10.0" type="line"/>
      <point x="208.0" y="157.6"/>
      <point x="208.0" y="330.2"/>
      <point x="208.0" y="497.8" type="curve" smooth="yes"/>
      <point x="208.0" y="504.6"/>
      <point x="206.0" y="508.0"/>
      <point x="201.2" y="512.8" type="curve" smooth="yes"/>
      <point x="189.6" y="524.4"/>
      <point x="146.2" y="534.0"/>
      <point x="111.0" y="534.0" type="curve" smooth="yes"/>
      <point x="92.0" y="534.0" type="line"/>
      <point x="92.0" y="420.6"/>
      <point x="92.0" y="301.4"/>
      <point x="92.0" y="188.0" type="curve" smooth="yes"/>
      <point x="92.0" y="136.4"/>
      <point x="92.0" y="83.8"/>
      <point x="92.0" y="32.2" type="curve" smooth="yes"/>
      <point x="92.0" y="25.4"/>
      <point x="94.0" y="22.0"/>
      <point x="98.8" y="17.2" type="curve" smooth="yes"/>
      <point x="117.6" y="-1.6000000000000005"/>
      <point x="153.8" y="-10.0"/>
      <point x="189.0" y="-10.0" type="curve" smooth="yes"/>
    </contour>
  </outline>
</glyph>
<glyph name="j" format="2">
  <advance width="300.0"/>
  <unicode hex="006A"/>
  <guideline y="0.0" identifier="Gf0BLhH1Gp"/>
  <guideline x="0.0" identifier="jAs656jmL7"/>
  <guideline x="50.0" identifier="R0YQBRbOYy"/>
  <guideline x="100.0" identifier="AWCsFaaIeR"/>
  <guideline x="150.0" identifier="GB7jSGv1BY"/>
  <guideline x="200.0" identifier="Gaot9tGUYM"/>
  <guideline x="250.0" identifier="NJyg7xfrTT"/>
  <guideline x="300.0" identifier="OsUZw1OWIV"/>
  <guideline y="-250.0" identifier="ZOpDRYYFry"/>
  <guideline y="-200.0" identifier="eZ2uxNI2f5"/>
  <guideline y="-150.0" identifier="alYRtCNk6j"/>
  <guideline y="-100.0" identifier="N0wFEmmvmE"/>
  <guideline y="-50.0" identifier="HybNVKZe1b"/>
  <guideline y="50.0" identifier="Cbr1diAA0Z"/>
  <guideline y="100.0" identifier="KMtpWtOBoC"/>
  <guideline y="150.0" identifier="9Dd4fvgoz9"/>
  <guideline y="200.0" identifier="rG0Xxb5CP1"/>
  <guideline y="250.0" identifier="R5OzilDhW0"/>
  <guideline y="300.0" identifier="oN5gjervbN"/>
  <guideline y="350.0" identifier="DglLgtlVY8"/>
  <guideline y="400.0" identifier="gJ1Q7YjEqr"/>
  <guideline y="450.0" identifier="RDHTxWfqoJ"/>
  <guideline y="500.0" identifier="lpLHnqr7jX"/>
  <guideline y="550.0" identifier="oLsvOyGBym"/>
  <guideline y="600.0" identifier="1VgzhD3IDm"/>
  <guideline y="650.0" identifier="r8FtNGWXDp"/>
  <guideline y="700.0" identifier="lfnZAUIDRO"/>
  <outline>
    <contour>
      <point x="220.0" y="617.0" type="line"/>
      <point x="220.0" y="644.4"/>
      <point x="220.0" y="683.0"/>
      <point x="220.0" y="710.4" type="curve" smooth="yes"/>
      <point x="220.0" y="718.0"/>
      <point x="218.4" y="721.0"/>
      <point x="212.0" y="727.4" type="curve" smooth="yes"/>
      <point x="194.4" y="745.0"/>
      <point x="172.4" y="751.4"/>
      <point x="140.4" y="751.4" type="curve"/>
      <point x="80.0" y="751.4" type="line"/>
      <point x="80.0" y="723.6"/>
      <point x="80.0" y="686.4"/>
      <point x="80.0" y="658.0" type="curve" smooth="yes"/>
      <point x="80.0" y="650.4"/>
      <point x="81.6" y="647.4"/>
      <point x="88.0" y="641.0" type="curve" smooth="yes"/>
      <point x="105.0" y="624.0"/>
      <point x="128.0" y="617.0"/>
      <point x="159.6" y="617.0" type="curve"/>
    </contour>
    <contour>
      <point x="54.599999999999994" y="-250.0" type="line"/>
      <point x="124.6" y="-250.0"/>
      <point x="208.0" y="-195.8"/>
      <point x="208.0" y="-12.0" type="curve" smooth="yes"/>
      <point x="208.0" y="156.2"/>
      <point x="208.0" y="329.6"/>
      <point x="208.0" y="497.8" type="curve" smooth="yes"/>
      <point x="208.0" y="504.6"/>
      <point x="206.0" y="508.0"/>
      <point x="201.2" y="512.8" type="curve" smooth="yes"/>
      <point x="189.6" y="524.4"/>
      <point x="146.2" y="534.0"/>
      <point x="111.0" y="534.0" type="curve" smooth="yes"/>
      <point x="92.0" y="534.0" type="line"/>
      <point x="92.0" y="428.8"/>
      <point x="92.0" y="298.0"/>
      <point x="92.0" y="214.0" type="curve"/>
      <point x="92.0" y="138.2"/>
      <point x="92.0" y="63.2"/>
      <point x="92.0" y="-12.0" type="curve" smooth="yes"/>
      <point x="92.0" y="-105.0"/>
      <point x="68.8" y="-140.0"/>
      <point x="3.6000000000000005" y="-140.0" type="curve"/>
      <point x="-6.0" y="-140.0" type="line"/>
      <point x="-6.0" y="-149.2" type="line" smooth="yes"/>
      <point x="-6.0" y="-209.6"/>
      <point x="15.2" y="-250.0"/>
      <point x="41.599999999999994" y="-250.0" type="curve" smooth="yes"/>
    </contour>
  </outline>
</glyph>
<glyph name="k" format="2">
  <advance width="600.0"/>
  <unicode hex="006B"/>
  <outline>
    <contour>
      <point x="189.0" y="-10.0" type="line"/>
      <point x="189.0" y="160.6"/>
      <point x="189.0" y="579.2"/>
      <point x="189.0" y="719.8" type="curve" smooth="yes"/>
      <point x="189.0" y="726.6"/>
      <point x="187.0" y="730.0"/>
      <point x="182.2" y="734.8" type="curve" smooth="yes"/>
      <point x="170.6" y="746.4"/>
      <point x="133.2" y="756.0"/>
      <point x="98.0" y="756.0" type="curve" smooth="yes"/>
      <point x="79.0" y="756.0" type="line"/>
      <point x="79.0" y="641.4"/>
      <point x="79.0" y="308.6"/>
      <point x="79.0" y="194.0" type="curve" smooth="yes"/>
      <point x="79.0" y="140.6"/>
      <point x="79.0" y="85.6"/>
      <point x="79.0" y="32.2" type="curve" smooth="yes"/>
      <point x="79.0" y="25.4"/>
      <point x="81.0" y="22.0"/>
      <point x="85.8" y="17.2" type="curve" smooth="yes"/>
      <point x="104.6" y="-1.6000000000000005"/>
      <point x="134.8" y="-10.0"/>
      <point x="170.0" y="-10.0" type="curve" smooth="yes"/>
    </contour>
    <contour>
      <point x="301.6" y="297.6" type="line"/>
      <point x="249.0" y="252.8"/>
      <point x="241.6" y="214.4"/>
      <point x="256.0" y="198.0" type="curve" smooth="yes"/>
      <point x="372.8" y="59.6" type="line" smooth="yes"/>
      <point x="426.4" y="-3.4"/>
      <point x="454.8" y="-20.0"/>
      <point x="506.0" y="-20.0" type="curve" smooth="yes"/>
      <point x="527.4" y="-20.0"/>
      <point x="550.0" y="-5.6"/>
      <point x="550.0" y="14.0" type="curve" smooth="yes"/>
      <point x="550.0" y="110.0" type="line"/>
      <point x="531.0" y="110.0" type="line"/>
      <point x="523.0" y="105.6"/>
      <point x="510.4" y="102.0"/>
      <point x="500.0" y="102.0" type="curve" smooth="yes"/>
      <point x="470.8" y="102.0"/>
      <point x="454.6" y="111.2"/>
      <point x="433.6" y="137.0" type="curve" smooth="yes"/>
    </contour>
    <contour>
      <point x="447.0" y="540.0" type="curve" smooth="yes"/>
      <point x="428.6" y="540.0" type="line"/>
      <point x="364.0" y="364.6"/>
      <point x="258.4" y="270.8"/>
      <point x="121.0" y="221.4" type="curve"/>
      <point x="121.0" y="180.8"/>
      <point x="142.0" y="160.2"/>
      <point x="161.6" y="163.8" type="curve" smooth="yes"/>
      <point x="301.8" y="191.8"/>
      <point x="438.2" y="284.4"/>
      <point x="525.6" y="464.4" type="curve" smooth="yes"/>
      <point x="533.6" y="481.0"/>
      <point x="535.4" y="487.4"/>
      <point x="535.4" y="493.2" type="curve" smooth="yes"/>
      <point x="535.4" y="516.1333333333333"/>
      <point x="492.692" y="540.0"/>
    </contour>
  </outline>
</glyph>
<glyph name="l" format="2">
  <advance width="300.0"/>
  <unicode hex="006C"/>
  <outline>
    <contour>
      <point x="26.0" y="750.0" type="curve"/>
      <point x="26.0" y="731.0" type="line" smooth="yes"/>
      <point x="26.0" y="684.4"/>
      <point x="31.400000000000002" y="659.6"/>
      <point x="44.2" y="646.8" type="curve" smooth="yes"/>
      <point x="49.0" y="642.0"/>
      <point x="52.4" y="640.0"/>
      <point x="59.2" y="640.0" type="curve"/>
      <point x="97.0" y="640.0"/>
      <point x="124.2" y="640.0"/>
      <point x="161.4" y="640.0" type="curve"/>
      <point x="161.4" y="659.0" type="line" smooth="yes"/>
      <point x="161.4" y="680.4"/>
      <point x="145.8" y="719.6"/>
      <point x="122.2" y="743.2" type="curve" smooth="yes"/>
      <point x="117.4" y="748.0"/>
      <point x="114.0" y="750.0"/>
      <point x="107.2" y="750.0" type="curve" smooth="yes"/>
      <point x="89.2" y="750.0"/>
      <point x="44.0" y="750.0"/>
    </contour>
    <contour>
      <point x="208.0" y="-10.0" type="line"/>
      <point x="208.0" y="160.6"/>
      <point x="208.0" y="573.2"/>
      <point x="208.0" y="713.8" type="curve" smooth="yes"/>
      <point x="208.0" y="720.6"/>
      <point x="206.0" y="724.0"/>
      <point x="201.2" y="728.8" type="curve" smooth="yes"/>
      <point x="189.6" y="740.4"/>
      <point x="146.2" y="750.0"/>
      <point x="111.0" y="750.0" type="curve" smooth="yes"/>
      <point x="92.0" y="750.0" type="line"/>
      <point x="92.0" y="635.4"/>
      <point x="92.0" y="308.6"/>
      <point x="92.0" y="194.0" type="curve" smooth="yes"/>
      <point x="92.0" y="140.6"/>
      <point x="92.0" y="85.6"/>
      <point x="92.0" y="32.2" type="curve" smooth="yes"/>
      <point x="92.0" y="25.4"/>
      <point x="94.0" y="22.0"/>
      <point x="98.8" y="17.2" type="curve" smooth="yes"/>
      <point x="117.6" y="-1.6000000000000005"/>
      <point x="153.8" y="-10.0"/>
      <point x="189.0" y="-10.0" type="curve" smooth="yes"/>
    </contour>
  </outline>
</glyph>
<glyph name="m" format="2">
  <advance width="900.0"/>
  <unicode hex="006D"/>
  <outline>
    <contour>
      <point x="195.0" y="-10.0" type="line"/>
      <point x="195.0" y="161.4"/>
      <point x="195.0" y="332.8"/>
      <point x="195.0" y="503.8" type="curve" smooth="yes"/>
      <point x="195.0" y="510.6"/>
      <point x="193.0" y="514.0"/>
      <point x="188.2" y="518.8" type="curve" smooth="yes"/>
      <point x="176.6" y="530.4"/>
      <point x="133.2" y="540.0"/>
      <point x="98.0" y="540.0" type="curve" smooth="yes"/>
      <point x="79.0" y="540.0" type="line"/>
      <point x="79.0" y="425.4"/>
      <point x="79.0" y="308.6"/>
      <point x="79.0" y="194.0" type="curve" smooth="yes"/>
      <point x="79.0" y="140.6"/>
      <point x="79.0" y="85.6"/>
      <point x="79.0" y="32.2" type="curve" smooth="yes"/>
      <point x="79.0" y="25.4"/>
      <point x="81.0" y="22.0"/>
      <point x="85.8" y="17.2" type="curve" smooth="yes"/>
      <point x="104.6" y="-1.6000000000000005"/>
      <point x="140.8" y="-10.0"/>
      <point x="176.0" y="-10.0" type="curve" smooth="yes"/>
    </contour>
    <contour>
      <point x="379.4" y="544.0" type="curve" smooth="yes"/>
      <point x="312.8" y="544.0"/>
      <point x="232.2" y="479.0"/>
      <point x="183.0" y="418.0" type="curve" smooth="yes"/>
      <point x="158.6" y="388.6"/>
      <point x="153.4" y="371.4"/>
      <point x="154.2" y="322.4" type="curve"/>
      <point x="245.6" y="404.8"/>
      <point x="297.0" y="428.0"/>
      <point x="373.0" y="428.0" type="curve" smooth="yes"/>
      <point x="413.4" y="428.0"/>
      <point x="445.4" y="410.6"/>
      <point x="464.6" y="364.8" type="curve"/>
      <point x="498.0" y="375.2"/>
      <point x="511.0" y="397.0"/>
      <point x="511.0" y="414.0" type="curve" smooth="yes"/>
      <point x="511.0" y="465.4"/>
      <point x="442.4" y="544.0"/>
    </contour>
    <contour>
      <point x="511.0" y="-10.0" type="line"/>
      <point x="511.0" y="141.6"/>
      <point x="511.0" y="262.4"/>
      <point x="511.0" y="414.0" type="curve" smooth="yes"/>
      <point x="511.0" y="420.8"/>
      <point x="509.0" y="424.2"/>
      <point x="504.2" y="429.0" type="curve" smooth="yes"/>
      <point x="485.4" y="447.8"/>
      <point x="449.2" y="456.2"/>
      <point x="414.0" y="456.2" type="curve" smooth="yes"/>
      <point x="395.0" y="456.2" type="line"/>
      <point x="395.0" y="359.6"/>
      <point x="395.0" y="291.2"/>
      <point x="395.0" y="194.0" type="curve" smooth="yes"/>
      <point x="395.0" y="140.6"/>
      <point x="395.0" y="85.6"/>
      <point x="395.0" y="32.2" type="curve" smooth="yes"/>
      <point x="395.0" y="25.4"/>
      <point x="397.0" y="22.0"/>
      <point x="401.8" y="17.2" type="curve" smooth="yes"/>
      <point x="420.6" y="-1.6000000000000005"/>
      <point x="456.8" y="-10.0"/>
      <point x="492.0" y="-10.0" type="curve" smooth="yes"/>
    </contour>
    <contour>
      <point x="689.4" y="544.0" type="curve" smooth="yes"/>
      <point x="622.8" y="544.0"/>
      <point x="542.2" y="479.0"/>
      <point x="493.0" y="418.0" type="curve" smooth="yes"/>
      <point x="468.6" y="388.6"/>
      <point x="463.4" y="371.4"/>
      <point x="464.2" y="322.4" type="curve"/>
      <point x="555.6" y="404.8"/>
      <point x="607.0" y="428.0"/>
      <point x="683.0" y="428.0" type="curve" smooth="yes"/>
      <point x="723.4" y="428.0"/>
      <point x="755.4" y="410.6"/>
      <point x="774.6" y="364.8" type="curve"/>
      <point x="808.0" y="375.2"/>
      <point x="821.0" y="397.0"/>
      <point x="821.0" y="414.0" type="curve" smooth="yes"/>
      <point x="821.0" y="465.4"/>
      <point x="752.4" y="544.0"/>
    </contour>
    <contour>
      <point x="821.0" y="-10.0" type="line"/>
      <point x="821.0" y="141.6"/>
      <point x="821.0" y="262.4"/>
      <point x="821.0" y="414.0" type="curve" smooth="yes"/>
      <point x="821.0" y="420.8"/>
      <point x="819.0" y="424.2"/>
      <point x="814.2" y="429.0" type="curve" smooth="yes"/>
      <point x="795.4" y="447.8"/>
      <point x="759.2" y="456.2"/>
      <point x="724.0" y="456.2" type="curve" smooth="yes"/>
      <point x="705.0" y="456.2" type="line"/>
      <point x="705.0" y="359.6"/>
      <point x="705.0" y="291.2"/>
      <point x="705.0" y="194.0" type="curve" smooth="yes"/>
      <point x="705.0" y="140.6"/>
      <point x="705.0" y="85.6"/>
      <point x="705.0" y="32.2" type="curve" smooth="yes"/>
      <point x="705.0" y="25.4"/>
      <point x="707.0" y="22.0"/>
      <point x="711.8" y="17.2" type="curve" smooth="yes"/>
      <point x="730.6" y="-1.6000000000000005"/>
      <point x="766.8" y="-10.0"/>
      <point x="802.0" y="-10.0" type="curve" smooth="yes"/>
    </contour>
  </outline>
</glyph>
<glyph name="o" format="2">
  <advance width="600.0"/>
  <unicode hex="006F"/>
  <outline>
    <contour>
      <point x="294.0" y="550.0" type="curve" smooth="yes"/>
      <point x="156.94755555555557" y="550.0"/>
      <point x="56.0" y="441.30204081632655"/>
      <point x="56.0" y="286.0" type="curve" smooth="yes"/>
      <point x="56.0" y="242.0" type="line" smooth="yes"/>
      <point x="56.0" y="86.2"/>
      <point x="160.18727603717542" y="-20.0"/>
      <point x="286.2" y="-20.0" type="curve" smooth="yes"/>
      <point x="306.0" y="-20.0" type="line" smooth="yes"/>
      <point x="335.4" y="-20.0"/>
      <point x="352.2" y="10.0"/>
      <point x="352.2" y="48.4" type="curve"/>
      <point x="211.05159855370624" y="56.803421860999244"/>
      <point x="166.0" y="133.8"/>
      <point x="166.0" y="223.8" type="curve" smooth="yes"/>
      <point x="166.0" y="268.0" type="line" smooth="yes"/>
      <point x="166.0" y="358.4"/>
      <point x="217.7695652173913" y="440.6"/>
      <point x="318.0" y="440.6" type="curve" smooth="yes"/>
      <point x="369.2" y="440.6"/>
      <point x="393.2" y="433.8"/>
      <point x="425.0" y="418.0" type="curve"/>
      <point x="436.4" y="427.0"/>
      <point x="438.8" y="432.0"/>
      <point x="438.8" y="451.2" type="curve"/>
      <point x="438.8" y="500.6"/>
      <point x="365.8865671641791" y="550.0"/>
    </contour>
    <contour>
      <point x="306.0" y="-20.0" type="curve" smooth="yes"/>
      <point x="443.2" y="-20.0"/>
      <point x="544.0" y="88.69795918367348"/>
      <point x="544.0" y="244.0" type="curve" smooth="yes"/>
      <point x="544.0" y="288.0" type="line" smooth="yes"/>
      <point x="544.0" y="443.8"/>
      <point x="440.0" y="550.0"/>
      <point x="313.8" y="550.0" type="curve" smooth="yes"/>
      <point x="294.0" y="550.0" type="line" smooth="yes"/>
      <point x="264.6" y="550.0"/>
      <point x="247.8" y="520.0"/>
      <point x="247.8" y="481.6" type="curve"/>
      <point x="388.8" y="473.2"/>
      <point x="434.0" y="396.2"/>
      <point x="434.0" y="306.2" type="curve" smooth="yes"/>
      <point x="434.0" y="262.0" type="line" smooth="yes"/>
      <point x="434.0" y="171.6"/>
      <point x="382.4" y="89.4"/>
      <point x="282.0" y="89.4" type="curve" smooth="yes"/>
      <point x="230.8" y="89.4"/>
      <point x="206.8" y="96.19999999999999"/>
      <point x="175.0" y="112.0" type="curve"/>
      <point x="163.6" y="103.0"/>
      <point x="161.2" y="98.0"/>
      <point x="161.2" y="78.8" type="curve"/>
      <point x="161.2" y="29.4"/>
      <point x="233.8" y="-20.0"/>
    </contour>
  </outline>
</glyph>
<glyph name="p" format="2">
  <advance width="600.0"/>
  <unicode hex="0070"/>
  <outline>
    <contour>
      <point x="195.0" y="-235.0" type="line"/>
      <point x="195.0" y="-13.702806499261456"/>
      <point x="195.0" y="278.71679251324747"/>
      <point x="195.0" y="499.8" type="curve" smooth="yes"/>
      <point x="195.0" y="506.6"/>
      <point x="193.0" y="510.0"/>
      <point x="188.2" y="514.8" type="curve" smooth="yes"/>
      <point x="176.6" y="526.4"/>
      <point x="133.2" y="536.0"/>
      <point x="98.0" y="536.0" type="curve" smooth="yes"/>
      <point x="79.0" y="536.0" type="line"/>
      <point x="79.0" y="422.6"/>
      <point x="79.0" y="307.4"/>
      <point x="79.0" y="194.0" type="curve" smooth="yes"/>
      <point x="79.0" y="91.1035311073745"/>
      <point x="79.0" y="-89.61657458563536"/>
      <point x="79.0" y="-192.8" type="curve" smooth="yes"/>
      <point x="79.0" y="-199.6"/>
      <point x="81.0" y="-203.0"/>
      <point x="85.8" y="-207.8" type="curve" smooth="yes"/>
      <point x="104.6" y="-226.6"/>
      <point x="140.8" y="-235.0"/>
      <point x="176.0" y="-235.0" type="curve" smooth="yes"/>
    </contour>
    <contour>
      <point x="389.4" y="544.0" type="curve" smooth="yes"/>
      <point x="319.6393459376597" y="544.0"/>
      <point x="236.66207563264896" y="485.52572664874214"/>
      <point x="183.0" y="418.0" type="curve" smooth="yes"/>
      <point x="159.2" y="388.6"/>
      <point x="153.4" y="371.4"/>
      <point x="154.2" y="322.4" type="curve"/>
      <point x="246.32508952248173" y="405.2197004723424"/>
      <point x="306.4568522041188" y="428.0"/>
      <point x="383.0" y="428.0" type="curve" smooth="yes"/>
      <point x="439.0" y="428.0"/>
      <point x="475.0" y="384.2"/>
      <point x="500.6" y="317.6" type="curve"/>
      <point x="534.0" y="319.2"/>
      <point x="550.0" y="339.8"/>
      <point x="550.0" y="356.4" type="curve" smooth="yes"/>
      <point x="550.0" y="455.4"/>
      <point x="466.0" y="544.0"/>
    </contour>
    <contour>
      <point x="330.0" y="-20.0" type="curve" smooth="yes"/>
      <point x="473.8425581395349" y="-20.0"/>
      <point x="550.0" y="124.19999999999999"/>
      <point x="550.0" y="318.0" type="curve" smooth="yes"/>
      <point x="550.0" y="356.4" type="line" smooth="yes"/>
      <point x="550.0" y="402.2"/>
      <point x="510.8" y="470.2"/>
      <point x="462.4" y="470.2" type="curve"/>
      <point x="429.4" y="470.2"/>
      <point x="404.6" y="462.0"/>
      <point x="403.8" y="439.4" type="curve"/>
      <point x="421.4" y="412.6"/>
      <point x="431.0" y="388.8"/>
      <point x="431.0" y="340.4" type="curve" smooth="yes"/>
      <point x="431.0" y="318.0" type="line" smooth="yes"/>
      <point x="431.0" y="178.8"/>
      <point x="373.88484848484853" y="87.0"/>
      <point x="285.0" y="87.0" type="curve" smooth="yes"/>
      <point x="244.4" y="87.0"/>
      <point x="215.6" y="91.8"/>
      <point x="182.0" y="102.19999999999999" type="curve"/>
      <point x="177.2" y="99.8"/>
      <point x="175.4" y="96.0"/>
      <point x="175.4" y="88.8" type="curve"/>
      <point x="175.4" y="51.23149606299213"/>
      <point x="252.8" y="-20.0"/>
    </contour>
  </outline>
</glyph>
<glyph name="q" format="2">
  <advance width="600.0"/>
  <unicode hex="0071"/>
  <outline>
    <contour>
      <point x="521.0" y="-235.0" type="line"/>
      <point x="521.0" y="-12.912954876273645"/>
      <point x="521.0" y="281.9269408902597"/>
      <point x="521.0" y="503.8" type="curve" smooth="yes"/>
      <point x="521.0" y="510.6"/>
      <point x="519.0" y="514.0"/>
      <point x="514.2" y="518.8" type="curve" smooth="yes"/>
      <point x="502.6" y="530.4"/>
      <point x="459.2" y="540.0"/>
      <point x="424.0" y="540.0" type="curve" smooth="yes"/>
      <point x="405.0" y="540.0" type="line"/>
      <point x="405.0" y="422.6"/>
      <point x="405.0" y="303.4"/>
      <point x="405.0" y="186.0" type="curve" smooth="yes"/>
      <point x="405.0" y="77.27407407407406"/>
      <point x="405.0" y="-83.98412698412699"/>
      <point x="405.0" y="-192.8" type="curve" smooth="yes"/>
      <point x="405.0" y="-199.6"/>
      <point x="407.0" y="-203.0"/>
      <point x="411.8" y="-207.8" type="curve" smooth="yes"/>
      <point x="430.6" y="-226.6"/>
      <point x="466.8" y="-235.0"/>
      <point x="502.0" y="-235.0" type="curve" smooth="yes"/>
    </contour>
    <contour>
      <point x="270.0" y="550.0" type="curve" smooth="yes"/>
      <point x="151.58" y="550.0"/>
      <point x="54.0" y="438.8"/>
      <point x="54.0" y="226.0" type="curve" smooth="yes"/>
      <point x="54.0" y="185.6" type="line" smooth="yes"/>
      <point x="54.0" y="138.8"/>
      <point x="92.8" y="69.2"/>
      <point x="153.0" y="69.2" type="curve"/>
      <point x="174.6" y="69.2"/>
      <point x="191.0" y="76.2"/>
      <point x="191.8" y="95.8" type="curve"/>
      <point x="178.8" y="118.8"/>
      <point x="173.0" y="152.6"/>
      <point x="173.0" y="213.6" type="curve" smooth="yes"/>
      <point x="173.0" y="230.0" type="line" smooth="yes"/>
      <point x="173.0" y="363.4"/>
      <point x="214.85999999999999" y="443.0"/>
      <point x="297.2" y="443.0" type="curve" smooth="yes"/>
      <point x="350.2" y="443.0"/>
      <point x="376.8" y="431.8"/>
      <point x="420.2" y="399.8" type="curve"/>
      <point x="429.2" y="402.8"/>
      <point x="429.8" y="423.4"/>
      <point x="422.6" y="436.0" type="curve"/>
      <point x="403.84716017879066" y="484.1899421926098"/>
      <point x="342.59" y="550.0"/>
    </contour>
    <contour>
      <point x="210.6" y="-14.0" type="curve" smooth="yes"/>
      <point x="277.2027593254982" y="-14.0"/>
      <point x="368.76672564696423" y="48.27035781063272"/>
      <point x="417.0" y="108.0" type="curve" smooth="yes"/>
      <point x="441.4" y="137.4"/>
      <point x="446.6" y="154.6"/>
      <point x="445.8" y="203.6" type="curve"/>
      <point x="355.26658593750994" y="122.44542941177217"/>
      <point x="293.5431477958812" y="102.0"/>
      <point x="217.0" y="102.0" type="curve" smooth="yes"/>
      <point x="155.8" y="102.0"/>
      <point x="131.8" y="160.0"/>
      <point x="98.0" y="234.0" type="curve"/>
      <point x="66.6" y="232.4"/>
      <point x="54.0" y="207.0"/>
      <point x="54.0" y="185.6" type="curve" smooth="yes"/>
      <point x="54.0" y="82.2"/>
      <point x="122.0" y="-14.0"/>
    </contour>
  </outline>
</glyph>
<glyph name="r" format="2">
  <advance width="600.0"/>
  <unicode hex="0072"/>
  <outline>
    <contour>
      <point x="400.4" y="550.0" type="curve" smooth="yes"/>
      <point x="344.8309392265193" y="550.0"/>
      <point x="273.8247565132563" y="482.0337109967746"/>
      <point x="228.0" y="419.2" type="curve" smooth="yes"/>
      <point x="205.4" y="388.2"/>
      <point x="198.4" y="371.8"/>
      <point x="199.2" y="322.4" type="curve"/>
      <point x="283.76546586738846" y="399.2098888485914"/>
      <point x="328.31107476317044" y="428.0"/>
      <point x="394.0" y="428.0" type="curve" smooth="yes"/>
      <point x="434.26666666666665" y="428.0"/>
      <point x="468.2540253215665" y="410.55968944261815"/>
      <point x="495.6" y="372.8" type="curve"/>
      <point x="521.0" y="375.2"/>
      <point x="534.0" y="397.0"/>
      <point x="534.0" y="414.0" type="curve" smooth="yes"/>
      <point x="534.0" y="467.7108108108108"/>
      <point x="463.4597014925373" y="550.0"/>
    </contour>
    <contour>
      <point x="534.0" y="231.0" type="line"/>
      <point x="534.0" y="296.0"/>
      <point x="534.0" y="348.4"/>
      <point x="534.0" y="414.0" type="curve" smooth="yes"/>
      <point x="534.0" y="420.8"/>
      <point x="532.0" y="424.2"/>
      <point x="527.2" y="429.0" type="curve" smooth="yes"/>
      <point x="508.4" y="447.8"/>
      <point x="472.2" y="456.2"/>
      <point x="437.0" y="456.2" type="curve" smooth="yes"/>
      <point x="418.0" y="456.2" type="line"/>
      <point x="418.0" y="391.6"/>
      <point x="418.0" y="337.8"/>
      <point x="418.0" y="273.2" type="curve" smooth="yes"/>
      <point x="418.0" y="266.4"/>
      <point x="420.0" y="263.0"/>
      <point x="424.8" y="258.2" type="curve" smooth="yes"/>
      <point x="443.6" y="239.4"/>
      <point x="479.8" y="231.0"/>
      <point x="515.0" y="231.0" type="curve" smooth="yes"/>
    </contour>
    <contour>
      <point x="35.0" y="530.0" type="curve"/>
      <point x="35.0" y="511.0" type="line" smooth="yes"/>
      <point x="35.0" y="464.4"/>
      <point x="40.4" y="439.6"/>
      <point x="53.2" y="426.8" type="curve" smooth="yes"/>
      <point x="58.0" y="422.0"/>
      <point x="61.4" y="420.0"/>
      <point x="68.2" y="420.0" type="curve"/>
      <point x="113.3734939759036" y="420.0"/>
      <point x="137.95339805825242" y="420.0"/>
      <point x="182.4" y="420.0" type="curve"/>
      <point x="182.4" y="439.0" type="line" smooth="yes"/>
      <point x="182.4" y="460.4"/>
      <point x="166.8" y="499.6"/>
      <point x="143.2" y="523.2" type="curve" smooth="yes"/>
      <point x="138.4" y="528.0"/>
      <point x="135.0" y="530.0"/>
      <point x="128.2" y="530.0" type="curve" smooth="yes"/>
      <point x="107.74563106796117" y="530.0"/>
      <point x="55.60240963855422" y="530.0"/>
    </contour>
    <contour>
      <point x="240.0" y="-10.0" type="line"/>
      <point x="240.0" y="121.4"/>
      <point x="240.0" y="252.4"/>
      <point x="240.0" y="383.8" type="curve"/>
      <point x="240.0" y="447.2"/>
      <point x="196.4" y="530.0"/>
      <point x="149.0" y="530.0" type="curve" smooth="yes"/>
      <point x="124.0" y="530.0" type="line"/>
      <point x="124.0" y="448.0"/>
      <point x="124.0" y="298.8"/>
      <point x="124.0" y="222.8" type="curve" smooth="yes"/>
      <point x="124.0" y="159.2"/>
      <point x="124.0" y="95.0"/>
      <point x="124.0" y="32.2" type="curve"/>
      <point x="124.0" y="25.4"/>
      <point x="126.0" y="22.0"/>
      <point x="130.8" y="17.2" type="curve" smooth="yes"/>
      <point x="149.6" y="-1.6000000000000005"/>
      <point x="185.8" y="-10.0"/>
      <point x="221.0" y="-10.0" type="curve" smooth="yes"/>
    </contour>
  </outline>
</glyph>
<glyph name="s" format="2">
  <advance width="600.0"/>
  <unicode hex="0073"/>
  <outline>
    <contour>
      <point x="375.4" y="550.0" type="curve" smooth="yes"/>
      <point x="236.0" y="550.0"/>
      <point x="85.0" y="466.6"/>
      <point x="85.0" y="368.8" type="curve" smooth="yes"/>
      <point x="85.0" y="345.6" type="line" smooth="yes"/>
      <point x="85.0" y="310.12"/>
      <point x="142.33559322033898" y="295.8"/>
      <point x="197.8" y="295.8" type="curve"/>
      <point x="195.44338115238227" y="312.2033670915302"/>
      <point x="195.0" y="338.6"/>
      <point x="195.0" y="356.0" type="curve" smooth="yes"/>
      <point x="195.0" y="402.59999999999997"/>
      <point x="285.2" y="440.0"/>
      <point x="369.6" y="440.0" type="curve" smooth="yes"/>
      <point x="428.0" y="440.0"/>
      <point x="467.0" y="429.8"/>
      <point x="495.6" y="414.0" type="curve"/>
      <point x="515.0" y="414.0" type="line"/>
      <point x="515.0" y="503.4" type="line"/>
      <point x="515.0" y="529.0"/>
      <point x="459.6" y="550.0"/>
    </contour>
    <contour>
      <point x="389.6" y="290.8" type="curve" smooth="yes"/>
      <point x="296.4" y="309.6" type="line" smooth="yes"/>
      <point x="210.93194663257867" y="326.4743041283063"/>
      <point x="195.0" y="336.0"/>
      <point x="195.0" y="356.0" type="curve" smooth="yes"/>
      <point x="195.0" y="370.4"/>
      <point x="197.4" y="394.8"/>
      <point x="213.6" y="415.0" type="curve"/>
      <point x="133.7048006866437" y="409.90709213314506"/>
      <point x="85.0" y="384.40275862068967"/>
      <point x="85.0" y="345.6" type="curve"/>
      <point x="85.0" y="291.494131092437"/>
      <point x="131.36802188743331" y="252.14259112740288"/>
      <point x="244.8" y="227.6" type="curve" smooth="yes"/>
      <point x="351.6" y="204.2" type="line" smooth="yes"/>
      <point x="438.0017007418343" y="185.5513285900878"/>
      <point x="463.8727489823976" y="159.2672650150789"/>
      <point x="479.0" y="107.4" type="curve"/>
      <point x="515.9118026152853" y="105.6240538321949"/>
      <point x="539.6" y="133.651564828614"/>
      <point x="539.6" y="159.6" type="curve"/>
      <point x="539.6" y="228.31960655737706"/>
      <point x="494.8312860578555" y="269.56751955858033"/>
    </contour>
    <contour>
      <point x="308.0" y="-20.0" type="line" smooth="yes"/>
      <point x="453.6" y="-20.0"/>
      <point x="539.6" y="34.4"/>
      <point x="539.6" y="120.2" type="curve" smooth="yes"/>
      <point x="539.6" y="159.6" type="line"/>
      <point x="539.6" y="181.44444444444446"/>
      <point x="510.899097389791" y="185.14941975057994"/>
      <point x="475.4" y="170.0" type="curve"/>
      <point x="464.8" y="116.19999999999999"/>
      <point x="415.8" y="90.0"/>
      <point x="300.0" y="90.0" type="curve" smooth="yes"/>
      <point x="189.2" y="90.0"/>
      <point x="137.0" y="101.4"/>
      <point x="80.2" y="145.0" type="curve"/>
      <point x="60.8" y="145.0" type="line"/>
      <point x="60.8" y="116.2"/>
      <point x="60.8" y="86.0"/>
      <point x="60.8" y="56.4" type="curve"/>
      <point x="60.8" y="15.4"/>
      <point x="139.2" y="-20.0"/>
      <point x="279.4" y="-20.0" type="curve" smooth="yes"/>
    </contour>
  </outline>
</glyph>
<glyph name="t" format="2">
  <advance width="600.0"/>
  <unicode hex="0074"/>
  <outline>
    <contour>
      <point x="539.2" y="160.0" type="line"/>
      <point x="522.8" y="160.0" type="line"/>
      <point x="480.8" y="111.4"/>
      <point x="427.6" y="90.0"/>
      <point x="356.4" y="90.0" type="curve" smooth="yes"/>
      <point x="304.6" y="90.0"/>
      <point x="263.8" y="93.6"/>
      <point x="225.6" y="112.4" type="curve"/>
      <point x="204.0" y="96.8"/>
      <point x="211.4" y="57.6"/>
      <point x="238.0" y="31.0" type="curve" smooth="yes"/>
      <point x="276.8" y="-7.8"/>
      <point x="297.6" y="-20.0"/>
      <point x="335.0" y="-20.0" type="curve" smooth="yes"/>
      <point x="345.0" y="-20.0"/>
      <point x="358.6" y="-20.0"/>
      <point x="368.6" y="-20.0" type="curve" smooth="yes"/>
      <point x="429.4" y="-20.0"/>
      <point x="485.4" y="0.6"/>
      <point x="516.4" y="31.6" type="curve" smooth="yes"/>
      <point x="531.0" y="46.2"/>
      <point x="539.2" y="65.4"/>
      <point x="539.2" y="91.6" type="curve"/>
    </contour>
    <contour>
      <point x="35.0" y="530.0" type="curve"/>
      <point x="35.0" y="487.0" type="line" smooth="yes"/>
      <point x="35.0" y="463.8"/>
      <point x="42.2" y="440.8"/>
      <point x="56.2" y="426.8" type="curve" smooth="yes"/>
      <point x="61.0" y="422.0"/>
      <point x="64.4" y="420.0"/>
      <point x="71.2" y="420.0" type="curve"/>
      <point x="133.73333333333332" y="420.0"/>
      <point x="203.46666666666667" y="420.0"/>
      <point x="266.0" y="420.0" type="curve"/>
      <point x="347.25384615384615" y="420.0"/>
      <point x="458.74615384615385" y="420.0"/>
      <point x="540.0" y="420.0" type="curve"/>
      <point x="540.0" y="439.0" type="line" smooth="yes"/>
      <point x="540.0" y="474.2"/>
      <point x="531.6" y="504.4"/>
      <point x="512.8" y="523.2" type="curve" smooth="yes"/>
      <point x="508.0" y="528.0"/>
      <point x="504.6" y="530.0"/>
      <point x="497.8" y="530.0" type="curve" smooth="yes"/>
      <point x="354.0" y="530.0"/>
      <point x="178.8" y="530.0"/>
    </contour>
    <contour>
      <point x="288.2" y="672.8" type="curve" smooth="yes"/>
      <point x="269.4" y="691.6"/>
      <point x="239.2" y="700.0"/>
      <point x="204.0" y="700.0" type="curve" smooth="yes"/>
      <point x="185.0" y="700.0" type="line"/>
      <point x="185.0" y="142.6" type="line" smooth="yes"/>
      <point x="185.0" y="95.8"/>
      <point x="199.4" y="69.6"/>
      <point x="238.0" y="31.0" type="curve"/>
      <point x="263.4" y="5.6"/>
      <point x="295.2" y="6.4"/>
      <point x="305.4" y="25.4" type="curve"/>
      <point x="297.8" y="64.0"/>
      <point x="295.0" y="107.2"/>
      <point x="295.0" y="157.8" type="curve" smooth="yes"/>
      <point x="295.0" y="657.8" type="line" smooth="yes"/>
      <point x="295.0" y="664.6"/>
      <point x="293.0" y="668.0"/>
    </contour>
  </outline>
</glyph>
<glyph name="u" format="2">
  <advance width="600.0"/>
  <unicode hex="0075"/>
  <outline>
    <contour>
      <point x="405.0" y="540.0" type="line"/>
      <point x="405.0" y="368.8694045174538"/>
      <point x="405.0" y="197.46666666666667"/>
      <point x="405.0" y="26.2" type="curve" smooth="yes"/>
      <point x="405.0" y="19.4"/>
      <point x="407.0" y="16.0"/>
      <point x="411.8" y="11.2" type="curve" smooth="yes"/>
      <point x="423.4" y="-0.40000000000000036"/>
      <point x="466.8" y="-10.0"/>
      <point x="502.0" y="-10.0" type="curve" smooth="yes"/>
      <point x="521.0" y="-10.0" type="line"/>
      <point x="521.0" y="104.73333333333333"/>
      <point x="521.0" y="221.26666666666668"/>
      <point x="521.0" y="336.0" type="curve" smooth="yes"/>
      <point x="521.0" y="389.5333333333333"/>
      <point x="521.0" y="444.26666666666665"/>
      <point x="521.0" y="497.8" type="curve" smooth="yes"/>
      <point x="521.0" y="504.6"/>
      <point x="519.0" y="508.0"/>
      <point x="514.2" y="512.8" type="curve" smooth="yes"/>
      <point x="495.4" y="531.6"/>
      <point x="459.2" y="540.0"/>
      <point x="424.0" y="540.0" type="curve" smooth="yes"/>
    </contour>
    <contour>
      <point x="212.6" y="-14.0" type="curve" smooth="yes"/>
      <point x="279.2" y="-14.0"/>
      <point x="367.8" y="51.0"/>
      <point x="417.0" y="112.0" type="curve" smooth="yes"/>
      <point x="441.4" y="141.4"/>
      <point x="446.6" y="158.6"/>
      <point x="445.8" y="207.6" type="curve"/>
      <point x="354.4" y="125.2"/>
      <point x="295.0" y="102.0"/>
      <point x="219.0" y="102.0" type="curve" smooth="yes"/>
      <point x="178.6" y="102.0"/>
      <point x="144.6" y="119.39999999999999"/>
      <point x="117.4" y="157.2" type="curve"/>
      <point x="92.0" y="154.8"/>
      <point x="79.0" y="133.0"/>
      <point x="79.0" y="116.0" type="curve" smooth="yes"/>
      <point x="79.0" y="64.6"/>
      <point x="149.6" y="-14.0"/>
    </contour>
    <contour>
      <point x="79.0" y="540.0" type="line"/>
      <point x="79.0" y="388.47482014388487"/>
      <point x="79.0" y="267.52517985611513"/>
      <point x="79.0" y="116.0" type="curve" smooth="yes"/>
      <point x="79.0" y="109.2"/>
      <point x="81.0" y="105.8"/>
      <point x="85.8" y="101.0" type="curve" smooth="yes"/>
      <point x="104.6" y="82.2"/>
      <point x="140.8" y="73.8"/>
      <point x="176.0" y="73.8" type="curve" smooth="yes"/>
      <point x="195.0" y="73.8" type="line"/>
      <point x="195.0" y="170.4"/>
      <point x="195.0" y="238.8"/>
      <point x="195.0" y="336.0" type="curve" smooth="yes"/>
      <point x="195.0" y="389.5333333333333"/>
      <point x="195.0" y="444.26666666666665"/>
      <point x="195.0" y="497.8" type="curve" smooth="yes"/>
      <point x="195.0" y="504.6"/>
      <point x="193.0" y="508.0"/>
      <point x="188.2" y="512.8" type="curve" smooth="yes"/>
      <point x="169.4" y="531.6"/>
      <point x="133.2" y="540.0"/>
      <point x="98.0" y="540.0" type="curve" smooth="yes"/>
    </contour>
  </outline>
</glyph>
<glyph name="v" format="2">
  <advance width="600.0"/>
  <unicode hex="0076"/>
  <outline>
    <contour>
      <point x="445.0" y="540.0" type="curve" smooth="yes"/>
      <point x="426.6" y="540.0" type="line"/>
      <point x="402.01178852111553" y="268.92781645509626"/>
      <point x="368.5558197265519" y="162.56134530325903"/>
      <point x="263.8" y="74.8" type="curve" smooth="yes"/>
      <point x="243.37184624606363" y="57.93532103122506"/>
      <point x="256.67123287671234" y="-10.0"/>
      <point x="303.6" y="-10.0" type="curve"/>
      <point x="340.0" y="-10.0" type="line"/>
      <point x="452.4823275285907" y="81.30895147831978"/>
      <point x="517.407568757106" y="248.4854295920575"/>
      <point x="538.2" y="484.8" type="curve" smooth="yes"/>
      <point x="541.0" y="515.8"/>
      <point x="494.4" y="540.0"/>
    </contour>
    <contour>
      <point x="76.4" y="540.0" type="curve" smooth="yes"/>
      <point x="58.0" y="540.0" type="line"/>
      <point x="80.94105490756705" y="274.06343278253286"/>
      <point x="123.2" y="125.6"/>
      <point x="221.0" y="27.799999999999997" type="curve" smooth="yes"/>
      <point x="252.6" y="-3.8"/>
      <point x="279.0" y="-10.0"/>
      <point x="303.6" y="-10.0" type="curve"/>
      <point x="335.5771428571428" y="-10.0"/>
      <point x="355.0" y="3.8"/>
      <point x="355.0" y="49.199999999999996" type="curve"/>
      <point x="244.20019186838016" y="129.11649078731818"/>
      <point x="202.11607933264574" y="241.3756578382572"/>
      <point x="177.2" y="502.4" type="curve" smooth="yes"/>
      <point x="175.0" y="524.4"/>
      <point x="125.8" y="540.0"/>
    </contour>
  </outline>
</glyph>
<glyph name="w" format="2">
  <advance width="900.0"/>
  <unicode hex="0077"/>
  <guideline x="192.40000000000003" y="171.2" angle="90.0" identifier="24drJOKHsl"/>
  <guideline x="216.8" y="20.400000000000002" angle="90.0" identifier="5Z8gD6m6Wp"/>
  <outline>
    <contour>
      <point x="159.8" y="517.2" type="curve" smooth="yes"/>
      <point x="144.2" y="532.8"/>
      <point x="101.6" y="540.0"/>
      <point x="66.4" y="540.0" type="curve" smooth="yes"/>
      <point x="48.0" y="540.0" type="line"/>
      <point x="69.4" y="278.8"/>
      <point x="94.8" y="134.2"/>
      <point x="184.8" y="42.2" type="curve" smooth="yes"/>
      <point x="228.0" y="-1.4"/>
      <point x="256.6" y="-10.0"/>
      <point x="283.6" y="-10.0" type="curve"/>
      <point x="313.4" y="-10.0"/>
      <point x="331.4" y="3.8"/>
      <point x="331.4" y="48.0" type="curve"/>
      <point x="223.4" y="126.8"/>
      <point x="189.0" y="240.6"/>
      <point x="167.6" y="497.6" type="curve" smooth="yes"/>
      <point x="166.6" y="509.0"/>
      <point x="165.0" y="512.0"/>
    </contour>
    <contour>
      <point x="481.8" y="400.4" type="curve" smooth="yes"/>
      <point x="466.86154602527927" y="415.3384539747207"/>
      <point x="444.5333333333333" y="430.0"/>
      <point x="420.2" y="430.0" type="curve" smooth="yes"/>
      <point x="401.8" y="430.0" type="line"/>
      <point x="377.2" y="224.4"/>
      <point x="337.6" y="149.0"/>
      <point x="254.2" y="68.8" type="curve"/>
      <point x="238.1667315703412" y="52.2239300592051"/>
      <point x="251.07999999999998" y="-10.0"/>
      <point x="283.6" y="-10.0" type="curve"/>
      <point x="320.0" y="-10.0" type="line"/>
      <point x="405.0" y="69.0"/>
      <point x="463.2" y="197.8"/>
      <point x="487.0" y="380.8" type="curve"/>
      <point x="487.6" y="388.8"/>
      <point x="486.6" y="395.6"/>
    </contour>
    <contour>
      <point x="486.8" y="488.6" type="curve" smooth="yes"/>
      <point x="472.2" y="503.2"/>
      <point x="432.6" y="511.0"/>
      <point x="399.8" y="511.0" type="curve" smooth="yes"/>
      <point x="381.4" y="511.0" type="line"/>
      <point x="401.4" y="257.4"/>
      <point x="444.2" y="114.8"/>
      <point x="519.2" y="39.8" type="curve" smooth="yes"/>
      <point x="561.6" y="-2.6"/>
      <point x="588.6" y="-10.0"/>
      <point x="615.6" y="-10.0" type="curve"/>
      <point x="635.4" y="-10.0"/>
      <point x="647.4" y="4.2"/>
      <point x="647.4" y="48.4" type="curve"/>
      <point x="553.6" y="120.6"/>
      <point x="516.4" y="227.4"/>
      <point x="495.0" y="468.6" type="curve" smooth="yes"/>
      <point x="493.6" y="480.8"/>
      <point x="492.0" y="483.4"/>
    </contour>
    <contour>
      <point x="842.6" y="505.2" type="curve" smooth="yes"/>
      <point x="822.6" y="525.2"/>
      <point x="790.0117647058823" y="540.0"/>
      <point x="755.0" y="540.0" type="curve" smooth="yes"/>
      <point x="736.6" y="540.0" type="line"/>
      <point x="712.0" y="269.2"/>
      <point x="677.2" y="159.6"/>
      <point x="574.6" y="75.6" type="curve"/>
      <point x="556.4" y="57.199999999999996"/>
      <point x="573.2" y="-10.0"/>
      <point x="615.6" y="-10.0" type="curve"/>
      <point x="652.0" y="-10.0" type="line"/>
      <point x="764.2" y="81.0"/>
      <point x="826.8" y="248.4"/>
      <point x="848.2" y="483.6" type="curve" smooth="yes"/>
      <point x="849.2" y="493.6"/>
      <point x="847.8" y="500.0"/>
    </contour>
  </outline>
</glyph>
<glyph name="x" format="2">
  <advance width="600.0"/>
  <unicode hex="0078"/>
  <outline>
    <contour>
      <point x="515.4" y="-10.0" type="curve" smooth="yes"/>
      <point x="548.6" y="-10.0"/>
      <point x="562.0" y="4.8"/>
      <point x="562.0" y="42.6" type="curve"/>
      <point x="562.0" y="106.0" type="line"/>
      <point x="489.4" y="123.6"/>
      <point x="435.8" y="154.2"/>
      <point x="357.0" y="233.0" type="curve" smooth="yes"/>
      <point x="292.4" y="297.6"/>
      <point x="238.2" y="371.4"/>
      <point x="177.8" y="501.8" type="curve" smooth="yes"/>
      <point x="174.2" y="510.0"/>
      <point x="172.0" y="513.2"/>
      <point x="167.6" y="517.6" type="curve" smooth="yes"/>
      <point x="153.0" y="532.2"/>
      <point x="119.8" y="540.0"/>
      <point x="70.4" y="540.0" type="curve" smooth="yes"/>
      <point x="48.0" y="540.0" type="line"/>
      <point x="94.0" y="387.8"/>
      <point x="175.4" y="257.2"/>
      <point x="285.0" y="145.0" type="curve" smooth="yes"/>
      <point x="385.8" y="44.2"/>
      <point x="468.0" y="-10.0"/>
    </contour>
    <contour>
      <point x="549.8" y="510.8" type="curve" smooth="yes"/>
      <point x="529.8" y="530.8"/>
      <point x="493.4" y="540.0"/>
      <point x="461.0" y="540.0" type="curve" smooth="yes"/>
      <point x="442.6" y="540.0" type="line"/>
      <point x="399.4" y="395.4"/>
      <point x="364.8" y="339.2"/>
      <point x="284.2" y="276.0" type="curve"/>
      <point x="256.0" y="246.4"/>
      <point x="284.6" y="207.0"/>
      <point x="336.6" y="207.0" type="curve"/>
      <point x="457.2" y="304.4"/>
      <point x="519.8" y="384.4"/>
      <point x="553.6" y="487.8" type="curve" smooth="yes"/>
      <point x="557.2" y="499.0"/>
      <point x="555.6" y="505.0"/>
    </contour>
    <contour>
      <point x="44.0" y="19.2" type="curve" smooth="yes"/>
      <point x="64.0" y="-0.7999999999999998"/>
      <point x="97.2" y="-10.0"/>
      <point x="130.0" y="-10.0" type="curve" smooth="yes"/>
      <point x="148.4" y="-10.0" type="line"/>
      <point x="176.4" y="79.4"/>
      <point x="213.0" y="137.0"/>
      <point x="293.4" y="200.0" type="curve"/>
      <point x="313.8" y="223.6"/>
      <point x="295.6" y="265.4"/>
      <point x="248.8" y="265.4" type="curve"/>
      <point x="111.0" y="171.2"/>
      <point x="50.8" y="93.8"/>
      <point x="40.0" y="41.0" type="curve" smooth="yes"/>
      <point x="37.0" y="30.2"/>
      <point x="38.6" y="24.599999999999998"/>
    </contour>
  </outline>
</glyph>
<glyph name="y" format="2">
  <advance width="600.0"/>
  <unicode hex="0079"/>
  <outline>
    <contour>
      <point x="159.4" y="517.6" type="curve" smooth="yes"/>
      <point x="144.2" y="532.8"/>
      <point x="101.6" y="540.0"/>
      <point x="66.4" y="540.0" type="curve" smooth="yes"/>
      <point x="48.0" y="540.0" type="line"/>
      <point x="60.4" y="390.6" type="line" smooth="yes"/>
      <point x="70.25855178738601" y="272.5620164982144"/>
      <point x="101.47600693286252" y="162.32399306713748"/>
      <point x="186.0" y="77.8" type="curve" smooth="yes"/>
      <point x="248.243484858451" y="15.556515141549"/>
      <point x="301.03018867924527" y="6.0"/>
      <point x="340.8" y="6.0" type="curve"/>
      <point x="363.37142857142857" y="6.0"/>
      <point x="383.8" y="31.0"/>
      <point x="383.4" y="95.6" type="curve"/>
      <point x="341.58181818181816" y="104.0"/>
      <point x="302.2074368245815" y="114.99256317541848"/>
      <point x="269.4" y="147.8" type="curve" smooth="yes"/>
      <point x="213.32744801138875" y="203.87255198861124"/>
      <point x="186.02671480755154" y="269.1164860913545"/>
      <point x="176.6" y="388.2" type="curve" smooth="yes"/>
      <point x="167.6" y="500.4" type="line" smooth="yes"/>
      <point x="166.6" y="509.4"/>
      <point x="164.6" y="512.4"/>
    </contour>
    <contour>
      <point x="543.0" y="504.4" type="curve" smooth="yes"/>
      <point x="523.0" y="524.4"/>
      <point x="490.2" y="540.0"/>
      <point x="455.0" y="540.0" type="curve" smooth="yes"/>
      <point x="436.6" y="540.0" type="line"/>
      <point x="425.4" y="414.4" type="line" smooth="yes"/>
      <point x="402.47659080252663" y="164.88623883826656"/>
      <point x="360.2316445453655" y="37.831644545365506"/>
      <point x="239.2" y="-83.2" type="curve" smooth="yes"/>
      <point x="211.6" y="-110.80000000000001"/>
      <point x="182.8" y="-137.6"/>
      <point x="122.8" y="-181.4" type="curve"/>
      <point x="122.8" y="-219.8"/>
      <point x="139.0" y="-250.0"/>
      <point x="171.8" y="-250.0" type="curve" smooth="yes"/>
      <point x="205.8" y="-250.0"/>
      <point x="246.4" y="-237.8"/>
      <point x="288.2" y="-196.0" type="curve" smooth="yes"/>
      <point x="435.9502016125204" y="-48.87775060922353"/>
      <point x="515.4465964485389" y="123.80162568195222"/>
      <point x="538.4" y="376.0" type="curve" smooth="yes"/>
      <point x="547.8" y="482.8" type="line" smooth="yes"/>
      <point x="548.8" y="492.8"/>
      <point x="547.8" y="499.6"/>
    </contour>
    <contour>
      <point x="62.0" y="-140.0" type="curve"/>
      <point x="62.0" y="-159.0" type="line" smooth="yes"/>
      <point x="62.0" y="-194.2"/>
      <point x="70.4" y="-224.4"/>
      <point x="89.2" y="-243.2" type="curve" smooth="yes"/>
      <point x="94.0" y="-248.0"/>
      <point x="97.4" y="-250.0"/>
      <point x="104.2" y="-250.0" type="curve"/>
      <point x="133.0" y="-250.0"/>
      <point x="143.4" y="-250.0"/>
      <point x="171.8" y="-250.0" type="curve" smooth="yes"/>
      <point x="219.6" y="-250.0"/>
      <point x="260.0" y="-193.8"/>
      <point x="263.6" y="-140.0" type="curve"/>
      <point x="204.6" y="-140.0"/>
      <point x="119.0" y="-140.0"/>
    </contour>
  </outline>
</glyph>
<glyph name="z" format="2">
  <advance width="600.0"/>
  <unicode hex="007A"/>
  <outline>
    <contour>
      <point x="62.0" y="530.0" type="curve"/>
      <point x="62.0" y="511.0" type="line" smooth="yes"/>
      <point x="62.0" y="475.4"/>
      <point x="70.4" y="445.6"/>
      <point x="89.2" y="426.8" type="curve" smooth="yes"/>
      <point x="94.0" y="422.0"/>
      <point x="97.4" y="420.0"/>
      <point x="104.2" y="420.0" type="curve"/>
      <point x="158.6" y="420.0"/>
      <point x="201.6" y="420.0"/>
      <point x="256.0" y="420.0" type="curve" smooth="yes"/>
      <point x="340.6" y="420.0"/>
      <point x="453.4" y="420.0"/>
      <point x="538.0" y="420.0" type="curve"/>
      <point x="538.0" y="460.8"/>
      <point x="522.4" y="499.6"/>
      <point x="498.8" y="523.2" type="curve" smooth="yes"/>
      <point x="494.0" y="528.0"/>
      <point x="490.6" y="530.0"/>
      <point x="483.8" y="530.0" type="curve" smooth="yes"/>
      <point x="347.8" y="530.0"/>
      <point x="198.0" y="530.0"/>
    </contour>
    <contour>
      <point x="534.0" y="433.0" type="curve" smooth="yes"/>
      <point x="507.8" y="459.2"/>
      <point x="492.8" y="477.0"/>
      <point x="450.6" y="477.0" type="curve"/>
      <point x="363.2" y="337.8"/>
      <point x="206.8" y="200.2"/>
      <point x="62.0" y="110.0" type="curve"/>
      <point x="62.0" y="77.19999999999999"/>
      <point x="83.4" y="63.0"/>
      <point x="102.8" y="63.0" type="curve" smooth="yes"/>
      <point x="129.8" y="63.0"/>
      <point x="143.0" y="67.0"/>
      <point x="167.2" y="78.19999999999999" type="curve" smooth="yes"/>
      <point x="346.0" y="174.4"/>
      <point x="538.0" y="373.8"/>
      <point x="538.0" y="420.0" type="curve" smooth="yes"/>
      <point x="538.0" y="426.0"/>
      <point x="537.0" y="430.0"/>
    </contour>
    <contour>
      <point x="538.0" y="0.0" type="curve"/>
      <point x="538.0" y="19.0" type="line" smooth="yes"/>
      <point x="538.0" y="40.8"/>
      <point x="522.4" y="79.6"/>
      <point x="498.8" y="103.19999999999999" type="curve" smooth="yes"/>
      <point x="494.0" y="108.0"/>
      <point x="490.6" y="110.0"/>
      <point x="483.8" y="110.0" type="curve" smooth="yes"/>
      <point x="347.8" y="110.0"/>
      <point x="198.0" y="110.0"/>
      <point x="62.0" y="110.0" type="curve"/>
      <point x="62.0" y="91.0" type="line" smooth="yes"/>
      <point x="62.0" y="55.4"/>
      <point x="70.4" y="25.6"/>
      <point x="89.2" y="6.8" type="curve" smooth="yes"/>
      <point x="94.0" y="2.0"/>
      <point x="97.4" y="0.0"/>
      <point x="104.2" y="0.0" type="curve"/>
      <point x="158.6" y="0.0"/>
      <point x="201.6" y="0.0"/>
      <point x="256.0" y="0.0" type="curve" smooth="yes"/>
      <point x="340.6" y="0.0"/>
      <point x="453.4" y="0.0"/>
    </contour>
  </outline>
</glyph>
<glyph name="f.ss01" format="2">
  <advance width="600.0"/>
  <outline>
    <contour>
      <point x="232.4" y="622.8" type="curve"/>
      <point x="279.0" y="656.0"/>
      <point x="332.4" y="664.0"/>
      <point x="400.0" y="664.0" type="curve" smooth="yes"/>
      <point x="461.6" y="664.0"/>
      <point x="515.0" y="650.2"/>
      <point x="546.0" y="635.0" type="curve"/>
      <point x="565.0" y="635.0" type="line"/>
      <point x="565.0" y="656.4" type="line"/>
      <point x="565.0" y="692.6"/>
      <point x="556.0" y="721.8"/>
      <point x="545.0" y="734.6" type="curve" smooth="yes"/>
      <point x="532.4" y="748.4"/>
      <point x="487.4" y="765.0"/>
      <point x="444.0" y="765.0" type="curve"/>
      <point x="386.0" y="765.0" type="line"/>
      <point x="321.6" y="765.0"/>
      <point x="274.4" y="753.0"/>
      <point x="225.6" y="704.2" type="curve" smooth="yes"/>
      <point x="203.4" y="682.0"/>
      <point x="204.0" y="644.6"/>
    </contour>
    <contour>
      <point x="280.0" y="20.6" type="line"/>
      <point x="280.0" y="210.8"/>
      <point x="280.0" y="357.6"/>
      <point x="280.0" y="530.0" type="curve" smooth="yes"/>
      <point x="280.0" y="586.2"/>
      <point x="266.8" y="662.0"/>
      <point x="286.8" y="718.8" type="curve"/>
      <point x="263.4" y="732.2"/>
      <point x="245.2" y="723.8"/>
      <point x="225.6" y="704.2" type="curve" smooth="yes"/>
      <point x="185.4" y="664.0"/>
      <point x="170.0" y="630.2"/>
      <point x="170.0" y="573.8" type="curve"/>
      <point x="170.0" y="437.6"/>
      <point x="170.0" y="250.2"/>
      <point x="170.0" y="62.8" type="curve"/>
      <point x="170.0" y="56.0"/>
      <point x="172.0" y="52.599999999999994"/>
      <point x="176.8" y="47.8" type="curve" smooth="yes"/>
      <point x="195.6" y="29.0"/>
      <point x="225.8" y="20.6"/>
      <point x="261.0" y="20.6" type="curve" smooth="yes"/>
    </contour>
    <contour>
      <point x="35.0" y="530.0" type="curve"/>
      <point x="35.0" y="511.0" type="line" smooth="yes"/>
      <point x="35.0" y="474.0"/>
      <point x="44.0" y="445.0"/>
      <point x="62.2" y="426.8" type="curve" smooth="yes"/>
      <point x="67.6" y="421.4"/>
      <point x="71.0" y="420.0"/>
      <point x="77.2" y="420.0" type="curve"/>
      <point x="128.6" y="420.0"/>
      <point x="189.6" y="420.0"/>
      <point x="241.0" y="420.0" type="curve"/>
      <point x="293.8" y="420.0"/>
      <point x="470.0" y="420.0"/>
      <point x="515.0" y="420.0" type="curve"/>
      <point x="515.0" y="439.0" type="line" smooth="yes"/>
      <point x="515.0" y="476.6"/>
      <point x="506.0" y="505.0"/>
      <point x="487.8" y="523.2" type="curve" smooth="yes"/>
      <point x="482.4" y="528.6"/>
      <point x="479.0" y="530.0"/>
      <point x="472.8" y="530.0" type="curve" smooth="yes"/>
      <point x="376.4" y="530.0"/>
      <point x="132.0" y="530.0"/>
    </contour>
    <contour>
      <point x="50.0" y="110.0" type="curve"/>
      <point x="50.0" y="91.0" type="line" smooth="yes"/>
      <point x="50.0" y="54.0"/>
      <point x="59.0" y="25.0"/>
      <point x="77.2" y="6.8" type="curve" smooth="yes"/>
      <point x="82.6" y="1.4"/>
      <point x="86.0" y="0.0"/>
      <point x="92.2" y="0.0" type="curve"/>
      <point x="146.6" y="0.0"/>
      <point x="201.6" y="0.0"/>
      <point x="256.0" y="0.0" type="curve"/>
      <point x="344.8" y="0.0"/>
      <point x="411.2" y="0.0"/>
      <point x="500.0" y="0.0" type="curve"/>
      <point x="500.0" y="19.0" type="line" smooth="yes"/>
      <point x="500.0" y="43.4"/>
      <point x="481.4" y="82.6"/>
      <point x="460.8" y="103.19999999999999" type="curve" smooth="yes"/>
      <point x="455.4" y="108.6"/>
      <point x="452.0" y="110.0"/>
      <point x="445.8" y="110.0" type="curve" smooth="yes"/>
      <point x="305.6" y="110.0"/>
      <point x="190.2" y="110.0"/>
    </contour>
  </outline>
</glyph>
<glyph name="g.ver02" format="2">
  <advance width="600.0"/>
  <outline>
    <contour>
      <point x="319.0" y="453.0" type="curve" smooth="yes"/>
      <point x="372.2" y="453.0"/>
      <point x="420.8" y="441.4"/>
      <point x="452.0" y="422.0" type="curve"/>
      <point x="482.4" y="463.8"/>
      <point x="482.4" y="492.6"/>
      <point x="462.8" y="512.2" type="curve" smooth="yes"/>
      <point x="436.8" y="538.2"/>
      <point x="369.6" y="550.0"/>
      <point x="311.0" y="550.0" type="curve" smooth="yes"/>
      <point x="168.4" y="550.0"/>
      <point x="68.0" y="483.6"/>
      <point x="68.0" y="368.0" type="curve" smooth="yes"/>
      <point x="68.0" y="315.0" type="line" smooth="yes"/>
      <point x="68.0" y="270.0"/>
      <point x="81.8" y="244.6"/>
      <point x="133.2" y="193.2" type="curve" smooth="yes"/>
      <point x="151.8" y="174.6"/>
      <point x="191.2" y="180.2"/>
      <point x="205.6" y="196.6" type="curve"/>
      <point x="180.8" y="229.0"/>
      <point x="175.6" y="242.6"/>
      <point x="175.6" y="277.8" type="curve" smooth="yes"/>
      <point x="175.6" y="336.0" type="line" smooth="yes"/>
      <point x="175.6" y="421.6"/>
      <point x="224.4" y="453.0"/>
    </contour>
    <contour>
      <point x="297.0" y="238.0" type="curve" smooth="yes"/>
      <point x="239.2" y="238.0"/>
      <point x="164.6" y="243.8"/>
      <point x="118.0" y="267.2" type="curve"/>
      <point x="106.8" y="241.8"/>
      <point x="111.8" y="215.6"/>
      <point x="133.2" y="193.2" type="curve" smooth="yes"/>
      <point x="180.8" y="144.4"/>
      <point x="234.4" y="140.0"/>
      <point x="309.0" y="140.0" type="curve" smooth="yes"/>
      <point x="453.0" y="140.0"/>
      <point x="532.0" y="212.6"/>
      <point x="532.0" y="324.0" type="curve" smooth="yes"/>
      <point x="532.0" y="377.0" type="line" smooth="yes"/>
      <point x="532.0" y="421.6"/>
      <point x="520.4" y="454.6"/>
      <point x="462.8" y="512.2" type="curve" smooth="yes"/>
      <point x="444.8" y="530.2"/>
      <point x="396.6" y="524.2"/>
      <point x="378.8" y="506.4" type="curve"/>
      <point x="413.2" y="477.6"/>
      <point x="428.0" y="457.8"/>
      <point x="428.0" y="409.0" type="curve" smooth="yes"/>
      <point x="428.0" y="339.0" type="line" smooth="yes"/>
      <point x="428.0" y="276.6"/>
      <point x="376.8" y="238.0"/>
    </contour>
    <contour>
      <point x="105.0" y="57.8" type="curve" smooth="yes"/>
      <point x="105.0" y="44.8" type="line" smooth="yes"/>
      <point x="105.0" y="-12.399999999999999"/>
      <point x="152.8" y="-46.0"/>
      <point x="231.0" y="-46.0" type="curve" smooth="yes"/>
      <point x="425.0" y="-46.0" type="line" smooth="yes"/>
      <point x="443.8" y="-46.0"/>
      <point x="456.2" y="-59.8"/>
      <point x="456.2" y="-78.2" type="curve" smooth="yes"/>
      <point x="456.2" y="-122.4" type="line" smooth="yes"/>
      <point x="456.2" y="-156.8"/>
      <point x="453.4" y="-176.0"/>
      <point x="443.4" y="-202.0" type="curve"/>
      <point x="459.8" y="-205.2"/>
      <point x="504.8" y="-197.0"/>
      <point x="516.4" y="-185.4" type="curve" smooth="yes"/>
      <point x="551.6" y="-150.2"/>
      <point x="565.0" y="-123.4"/>
      <point x="565.0" y="-80.0" type="curve" smooth="yes"/>
      <point x="565.0" y="-42.0" type="line" smooth="yes"/>
      <point x="565.0" y="13.0"/>
      <point x="518.8" y="55.0"/>
      <point x="459.0" y="55.0" type="curve" smooth="yes"/>
      <point x="239.2" y="55.0" type="line" smooth="yes"/>
      <point x="220.6" y="55.0"/>
      <point x="215.0" y="60.599999999999994"/>
      <point x="215.0" y="79.2" type="curve" smooth="yes"/>
      <point x="215.0" y="107.2" type="line" smooth="yes"/>
      <point x="215.0" y="125.2"/>
      <point x="222.2" y="147.0"/>
      <point x="229.0" y="161.8" type="curve"/>
      <point x="229.0" y="168.2"/>
      <point x="227.4" y="173.2"/>
      <point x="223.0" y="176.8" type="curve" smooth="yes"/>
      <point x="182.2" y="176.8"/>
      <point x="105.0" y="108.6"/>
    </contour>
    <contour>
      <point x="537.0" y="-112.80000000000001" type="curve"/>
      <point x="461.0" y="-165.2"/>
      <point x="410.8" y="-170.0"/>
      <point x="331.8" y="-170.0" type="curve"/>
      <point x="250.0" y="-170.0" type="line"/>
      <point x="189.0" y="-170.0"/>
      <point x="161.0" y="-148.8"/>
      <point x="161.0" y="-101.0" type="curve" smooth="yes"/>
      <point x="161.0" y="-88.0" type="line" smooth="yes"/>
      <point x="161.0" y="-66.0"/>
      <point x="174.6" y="-38.8"/>
      <point x="201.6" y="-27.4" type="curve"/>
      <point x="201.6" y="-19.2"/>
      <point x="196.2" y="-12.399999999999999"/>
      <point x="188.4" y="-12.399999999999999" type="curve"/>
      <point x="111.2" y="-12.399999999999999"/>
      <point x="60.0" y="-62.4"/>
      <point x="60.0" y="-125.4" type="curve" smooth="yes"/>
      <point x="60.0" y="-137.0" type="line" smooth="yes"/>
      <point x="60.0" y="-201.0"/>
      <point x="123.6" y="-250.0"/>
      <point x="213.0" y="-250.0" type="curve"/>
      <point x="284.0" y="-250.0" type="line"/>
      <point x="386.8" y="-250.0"/>
      <point x="467.8" y="-234.0"/>
      <point x="516.4" y="-185.4" type="curve"/>
      <point x="541.6" y="-160.2"/>
      <point x="550.8" y="-126.6"/>
    </contour>
    <contour>
      <point x="448.8" y="493.8" type="curve" smooth="yes"/>
      <point x="524.4" y="556.4" type="line" smooth="yes"/>
      <point x="550.8" y="578.6"/>
      <point x="565.0" y="594.2"/>
      <point x="565.0" y="622.6" type="curve" smooth="yes"/>
      <point x="565.0" y="627.4"/>
      <point x="565.0" y="636.2"/>
      <point x="565.0" y="642.8" type="curve" smooth="yes"/>
      <point x="565.0" y="649.6"/>
      <point x="563.0" y="653.0"/>
      <point x="558.2" y="657.8" type="curve" smooth="yes"/>
      <point x="539.4" y="676.6"/>
      <point x="503.6" y="685.0"/>
      <point x="468.0" y="685.0" type="curve" smooth="yes"/>
      <point x="455.0" y="685.0" type="line"/>
      <point x="455.0" y="676.0"/>
      <point x="455.0" y="663.6"/>
      <point x="455.0" y="654.6" type="curve" smooth="yes"/>
      <point x="455.0" y="635.2"/>
      <point x="451.0" y="622.8"/>
      <point x="445.2" y="605.8" type="curve" smooth="yes"/>
      <point x="409.8" y="501.0" type="line"/>
      <point x="419.8" y="491.2"/>
      <point x="438.8" y="486.2"/>
    </contour>
  </outline>
</glyph>
<glyph name="r.ss01" format="2">
  <advance width="600.0"/>
  <outline>
    <contour>
      <point x="50.0" y="530.0" type="curve"/>
      <point x="50.0" y="511.0" type="line" smooth="yes"/>
      <point x="50.0" y="475.8"/>
      <point x="58.4" y="445.6"/>
      <point x="77.2" y="426.8" type="curve" smooth="yes"/>
      <point x="82.0" y="422.0"/>
      <point x="85.4" y="420.0"/>
      <point x="92.2" y="420.0" type="curve"/>
      <point x="138.6" y="420.0"/>
      <point x="169.2" y="420.0"/>
      <point x="215.6" y="420.0" type="curve"/>
      <point x="215.6" y="439.0" type="line" smooth="yes"/>
      <point x="215.6" y="472.4"/>
      <point x="206.4" y="530.0"/>
      <point x="166.2" y="530.0" type="curve" smooth="yes"/>
      <point x="119.8" y="530.0"/>
      <point x="96.4" y="530.0"/>
    </contour>
    <contour>
      <point x="260.0" y="35.599999999999994" type="line"/>
      <point x="260.0" y="151.8"/>
      <point x="260.0" y="267.6"/>
      <point x="260.0" y="383.8" type="curve"/>
      <point x="260.0" y="447.2"/>
      <point x="216.4" y="530.0"/>
      <point x="169.0" y="530.0" type="curve" smooth="yes"/>
      <point x="150.0" y="530.0" type="line"/>
      <point x="150.0" y="448.0"/>
      <point x="150.0" y="298.8"/>
      <point x="150.0" y="222.8" type="curve" smooth="yes"/>
      <point x="150.0" y="174.4"/>
      <point x="150.0" y="125.4"/>
      <point x="150.0" y="77.8" type="curve"/>
      <point x="150.0" y="71.0"/>
      <point x="152.0" y="67.6"/>
      <point x="156.8" y="62.8" type="curve" smooth="yes"/>
      <point x="175.6" y="44.0"/>
      <point x="205.8" y="35.599999999999994"/>
      <point x="241.0" y="35.599999999999994" type="curve" smooth="yes"/>
    </contour>
    <contour>
      <point x="50.0" y="110.0" type="curve"/>
      <point x="50.0" y="91.0" type="line" smooth="yes"/>
      <point x="50.0" y="55.8"/>
      <point x="58.4" y="25.6"/>
      <point x="77.2" y="6.8" type="curve" smooth="yes"/>
      <point x="82.0" y="2.0"/>
      <point x="85.4" y="0.0"/>
      <point x="92.2" y="0.0" type="curve"/>
      <point x="146.6" y="0.0"/>
      <point x="201.6" y="0.0"/>
      <point x="256.0" y="0.0" type="curve"/>
      <point x="330.4" y="0.0"/>
      <point x="355.6" y="0.0"/>
      <point x="430.0" y="0.0" type="curve"/>
      <point x="430.0" y="19.0" type="line" smooth="yes"/>
      <point x="430.0" y="54.2"/>
      <point x="421.6" y="84.4"/>
      <point x="402.8" y="103.19999999999999" type="curve" smooth="yes"/>
      <point x="398.0" y="108.0"/>
      <point x="394.6" y="110.0"/>
      <point x="387.8" y="110.0" type="curve"/>
      <point x="258.4" y="110.0"/>
      <point x="179.4" y="110.0"/>
    </contour>
    <contour>
      <point x="446.4" y="550.0" type="curve" smooth="yes"/>
      <point x="380.4" y="550.0"/>
      <point x="288.8" y="483.0"/>
      <point x="245.0" y="415.8" type="curve" smooth="yes"/>
      <point x="225.4" y="383.6"/>
      <point x="220.8" y="359.6"/>
      <point x="222.0" y="320.2" type="curve"/>
      <point x="297.2" y="409.2"/>
      <point x="353.2" y="435.8"/>
      <point x="413.0" y="435.8" type="curve" smooth="yes"/>
      <point x="458.0" y="435.8"/>
      <point x="489.6" y="421.4"/>
      <point x="519.8" y="392.6" type="curve"/>
      <point x="533.6" y="399.2"/>
      <point x="540.0" y="412.8"/>
      <point x="540.0" y="427.8" type="curve" smooth="yes"/>
      <point x="540.0" y="472.4"/>
      <point x="492.6" y="550.0"/>
    </contour>
    <contour>
      <point x="540.0" y="285.0" type="line"/>
      <point x="540.0" y="331.8"/>
      <point x="540.0" y="381.0"/>
      <point x="540.0" y="427.8" type="curve" smooth="yes"/>
      <point x="540.0" y="460.0"/>
      <point x="493.2" y="484.0"/>
      <point x="449.0" y="484.0" type="curve" smooth="yes"/>
      <point x="430.0" y="484.0" type="line"/>
      <point x="430.0" y="463.2"/>
      <point x="430.0" y="443.2"/>
      <point x="430.0" y="424.8" type="curve" smooth="yes"/>
      <point x="430.0" y="398.2"/>
      <point x="430.0" y="355.8"/>
      <point x="430.0" y="327.2" type="curve" smooth="yes"/>
      <point x="430.0" y="320.4"/>
      <point x="432.0" y="317.0"/>
      <point x="436.8" y="312.2" type="curve" smooth="yes"/>
      <point x="455.6" y="293.4"/>
      <point x="485.8" y="285.0"/>
      <point x="521.0" y="285.0" type="curve" smooth="yes"/>
    </contour>
  </outline>
</glyph>
<glyph name="r.ss02" format="2">
  <advance width="600.0"/>
  <outline>
    <contour>
      <point x="50.0" y="530.0" type="curve"/>
      <point x="50.0" y="511.0" type="line" smooth="yes"/>
      <point x="50.0" y="475.8"/>
      <point x="58.4" y="445.6"/>
      <point x="77.2" y="426.8" type="curve" smooth="yes"/>
      <point x="82.0" y="422.0"/>
      <point x="85.4" y="420.0"/>
      <point x="92.2" y="420.0" type="curve"/>
      <point x="144.2" y="420.0"/>
      <point x="179.6" y="420.0"/>
      <point x="231.6" y="420.0" type="curve"/>
      <point x="231.6" y="439.0" type="line" smooth="yes"/>
      <point x="231.6" y="472.4"/>
      <point x="222.4" y="530.0"/>
      <point x="182.2" y="530.0" type="curve" smooth="yes"/>
      <point x="130.2" y="530.0"/>
      <point x="102.0" y="530.0"/>
    </contour>
    <contour>
      <point x="276.0" y="-10.0" type="line"/>
      <point x="276.0" y="121.4"/>
      <point x="276.0" y="252.4"/>
      <point x="276.0" y="383.8" type="curve"/>
      <point x="276.0" y="447.2"/>
      <point x="232.4" y="530.0"/>
      <point x="185.0" y="530.0" type="curve" smooth="yes"/>
      <point x="160.0" y="530.0" type="line"/>
      <point x="160.0" y="448.0"/>
      <point x="160.0" y="298.8"/>
      <point x="160.0" y="222.8" type="curve" smooth="yes"/>
      <point x="160.0" y="159.2"/>
      <point x="160.0" y="95.0"/>
      <point x="160.0" y="32.2" type="curve"/>
      <point x="160.0" y="25.4"/>
      <point x="162.0" y="22.0"/>
      <point x="166.8" y="17.2" type="curve" smooth="yes"/>
      <point x="185.6" y="-1.6000000000000005"/>
      <point x="221.8" y="-10.0"/>
      <point x="257.0" y="-10.0" type="curve" smooth="yes"/>
    </contour>
    <contour>
      <point x="422.4" y="550.0" type="curve" smooth="yes"/>
      <point x="370.6" y="550.0"/>
      <point x="300.4" y="482.6"/>
      <point x="261.0" y="415.8" type="curve" smooth="yes"/>
      <point x="241.8" y="382.4"/>
      <point x="236.8" y="357.6"/>
      <point x="238.0" y="317.4" type="curve"/>
      <point x="304.2" y="408.2"/>
      <point x="358.0" y="435.8"/>
      <point x="413.0" y="435.8" type="curve" smooth="yes"/>
      <point x="458.0" y="435.8"/>
      <point x="489.6" y="421.4"/>
      <point x="519.8" y="392.6" type="curve"/>
      <point x="533.6" y="399.2"/>
      <point x="540.0" y="412.8"/>
      <point x="540.0" y="427.8" type="curve" smooth="yes"/>
      <point x="540.0" y="472.4"/>
      <point x="480.6" y="550.0"/>
    </contour>
    <contour>
      <point x="540.0" y="250.0" type="line"/>
      <point x="540.0" y="309.2"/>
      <point x="540.0" y="369.2"/>
      <point x="540.0" y="427.8" type="curve" smooth="yes"/>
      <point x="540.0" y="460.0"/>
      <point x="493.2" y="484.0"/>
      <point x="449.0" y="484.0" type="curve" smooth="yes"/>
      <point x="430.0" y="484.0" type="line"/>
      <point x="430.0" y="463.2"/>
      <point x="430.0" y="443.2"/>
      <point x="430.0" y="424.8" type="curve" smooth="yes"/>
      <point x="430.0" y="388.2"/>
      <point x="430.0" y="332.4"/>
      <point x="430.0" y="292.2" type="curve" smooth="yes"/>
      <point x="430.0" y="285.4"/>
      <point x="432.0" y="282.0"/>
      <point x="436.8" y="277.2" type="curve" smooth="yes"/>
      <point x="455.6" y="258.4"/>
      <point x="485.8" y="250.0"/>
      <point x="521.0" y="250.0" type="curve" smooth="yes"/>
    </contour>
  </outline>
</glyph>
<glyph name="s.alt1" format="2">
  <advance width="600.0"/>
  <outline>
    <contour>
      <point x="389.6" y="263.4" type="curve" smooth="yes"/>
      <point x="296.4" y="282.2" type="line" smooth="yes"/>
      <point x="210.6" y="299.4"/>
      <point x="195.0" y="314.0"/>
      <point x="195.0" y="337.0" type="curve" smooth="yes"/>
      <point x="195.0" y="351.4"/>
      <point x="199.4" y="377.6"/>
      <point x="206.2" y="397.4" type="curve"/>
      <point x="134.6" y="397.4"/>
      <point x="85.0" y="365.4"/>
      <point x="85.0" y="327.8" type="curve"/>
      <point x="85.0" y="275.8"/>
      <point x="141.2" y="238.2"/>
      <point x="259.2" y="212.8" type="curve" smooth="yes"/>
      <point x="351.6" y="193.0" type="line" smooth="yes"/>
      <point x="436.2" y="175.0"/>
      <point x="467.0" y="157.8"/>
      <point x="497.6" y="112.4" type="curve"/>
      <point x="523.8" y="112.4"/>
      <point x="539.6" y="124.0"/>
      <point x="539.6" y="152.2" type="curve"/>
      <point x="539.6" y="206.0"/>
      <point x="493.8" y="242.6"/>
    </contour>
    <contour>
      <point x="300.0" y="-20.0" type="curve" smooth="yes"/>
      <point x="440.8" y="-20.0"/>
      <point x="539.6" y="32.2"/>
      <point x="539.6" y="106.8" type="curve" smooth="yes"/>
      <point x="539.6" y="152.2" type="line"/>
      <point x="539.6" y="176.0"/>
      <point x="516.6" y="189.6"/>
      <point x="495.2" y="184.4" type="curve"/>
      <point x="464.8" y="124.0"/>
      <point x="404.4" y="90.0"/>
      <point x="300.0" y="90.0" type="curve" smooth="yes"/>
      <point x="197.4" y="90.0"/>
      <point x="154.2" y="102.0"/>
      <point x="95.2" y="145.0" type="curve"/>
      <point x="60.8" y="145.0" type="line"/>
      <point x="60.8" y="121.6"/>
      <point x="60.8" y="96.8"/>
      <point x="60.8" y="72.6" type="curve"/>
      <point x="59.6" y="16.0"/>
      <point x="152.6" y="-20.0"/>
    </contour>
    <contour>
      <point x="385.0" y="550.0" type="curve" smooth="yes"/>
      <point x="249.2" y="550.0"/>
      <point x="85.0" y="449.8"/>
      <point x="85.0" y="367.8" type="curve" smooth="yes"/>
      <point x="85.0" y="327.8" type="line" smooth="yes"/>
      <point x="85.0" y="293.2"/>
      <point x="143.0" y="276.8"/>
      <point x="200.6" y="276.8" type="curve"/>
      <point x="196.2" y="293.4"/>
      <point x="195.0" y="319.6"/>
      <point x="195.0" y="337.0" type="curve" smooth="yes"/>
      <point x="195.0" y="376.8"/>
      <point x="306.4" y="440.0"/>
      <point x="384.6" y="440.0" type="curve" smooth="yes"/>
      <point x="403.6" y="440.0"/>
      <point x="425.0" y="434.0"/>
      <point x="453.0" y="420.0" type="curve"/>
      <point x="491.8" y="458.8"/>
      <point x="491.0" y="495.6"/>
      <point x="474.2" y="512.4" type="curve"/>
      <point x="450.4" y="537.0"/>
      <point x="419.4" y="550.0"/>
    </contour>
    <contour>
      <point x="515.0" y="420.0" type="curve"/>
      <point x="515.0" y="454.4"/>
      <point x="500.4" y="486.2"/>
      <point x="474.2" y="512.4" type="curve"/>
      <point x="455.6" y="531.4"/>
      <point x="414.0" y="520.2"/>
      <point x="385.0" y="493.6" type="curve"/>
      <point x="397.4" y="472.0"/>
      <point x="405.0" y="443.4"/>
      <point x="405.0" y="429.2" type="curve"/>
      <point x="405.0" y="421.4"/>
      <point x="405.0" y="413.8"/>
      <point x="405.0" y="406.0" type="curve"/>
      <point x="405.0" y="368.0"/>
      <point x="429.0" y="350.0"/>
      <point x="480.2" y="350.0" type="curve" smooth="yes"/>
      <point x="515.0" y="350.0" type="line"/>
      <point x="515.0" y="374.2"/>
      <point x="515.0" y="397.6"/>
    </contour>
  </outline>
</glyph>
